<?xml version="1.0" encoding="UTF-8" standalone="no"?>
<!DOCTYPE svg PUBLIC "-//W3C//DTD SVG 1.1//EN" "http://www.w3.org/Graphics/SVG/1.1/DTD/svg11.dtd">
<svg xmlns:xl="http://www.w3.org/1999/xlink" xmlns:dc="http://purl.org/dc/elements/1.1/" xmlns="http://www.w3.org/2000/svg" version="1.1" viewBox="36 63 292.5 297" width="292.5" height="297">
  <defs>
    <clipPath id="artboard_clip_path">
      <path d="M 36 63 L 328.5 63 L 328.5 360 L 36 360 Z"/>
    </clipPath>
  </defs>
  <g id="Cross_Moline_(4)" stroke-dasharray="none" stroke-opacity="1" fill="none" stroke="none" fill-opacity="1">
    <title>Cross Moline (4)</title>
    <g id="Cross_Moline_(4)_Layer_2" clip-path="url(#artboard_clip_path)">
      <title>Layer 2</title>
      <g id="Graphic_20">
        <path d="M 182.25 97.24882 C 180.5254 79.10693 172.41166 67.5 152.22202 67.5 C 129.12062 67.5 121.82948 90.2944 121.82948 90.2944 C 121.82948 90.2944 159.82015 78.01459 159.82015 100.809 C 159.82015 112.02569 159.82015 131.36496 159.82015 151.07948 L 159.82015 189.07015 L 121.82948 189.07015 L 121.82948 189.07015 C 102.11496 189.07015 82.77569 189.07015 71.55899 189.07015 C 48.76459 189.07015 61.044404 151.07948 61.044404 151.07948 C 61.044404 151.07948 38.25 158.37062 38.25 181.47202 C 38.25 201.66166 49.856933 209.7754 67.99882 211.5 C 49.85693 213.2246 38.25 221.33834 38.25 241.52798 C 38.25 264.62938 61.0444 271.92052 61.044404 271.92052 L 61.044404 271.92052 C 61.044404 271.92052 48.76459 233.92985 71.55899 233.92985 C 82.77569 233.92985 102.11496 233.92985 121.82948 233.92985 L 121.82948 233.92985 L 121.82948 233.92985 L 159.82015 233.92985 L 159.82015 271.92052 L 159.82015 271.92052 C 159.82015 291.63504 159.82015 310.9743 159.82015 322.191 C 159.82015 344.9854 121.82948 332.7056 121.82948 332.7056 C 121.82948 332.7056 129.12062 355.5 152.22202 355.5 C 172.41166 355.5 180.5254 343.89307 182.25 325.7512 C 183.9746 343.89307 192.08834 355.5 212.27798 355.5 C 235.37938 355.5 242.67052 332.7056 242.67052 332.7056 C 242.67052 332.7056 204.67985 344.9854 204.67985 322.191 C 204.67985 310.9743 204.67985 291.63504 204.67985 271.92052 L 204.67985 271.92052 L 204.67985 271.92052 L 204.67985 233.92985 L 242.67052 233.92985 L 242.67052 233.92985 C 262.38504 233.92985 281.7243 233.92985 292.941 233.92985 C 315.7354 233.92985 303.4556 271.92052 303.4556 271.92052 C 303.4556 271.92052 326.25 264.62938 326.25 241.52798 C 326.25 221.33834 314.64307 213.2246 296.5012 211.5 C 314.64307 209.7754 326.25 201.66166 326.25 181.47202 C 326.25 158.37062 303.4556 151.07948 303.4556 151.07948 C 303.4556 151.07948 315.7354 189.07015 292.941 189.07015 C 281.7243 189.07015 262.38504 189.07015 242.67052 189.07015 L 242.67052 189.07015 L 242.67052 189.07015 L 204.67985 189.07015 L 204.67985 151.07948 L 204.67985 151.07948 C 204.67985 131.36496 204.67985 112.02569 204.67985 100.809 C 204.67985 78.01459 242.67052 90.2944 242.67052 90.2944 C 242.67052 90.2944 235.37938 67.5 212.27798 67.5 C 192.08834 67.5 183.9746 79.10693 182.25 97.24882 Z" fill="#FFFFFF"/>
        <path d="M 182.25 97.24882 C 180.5254 79.10693 172.41166 67.5 152.22202 67.5 C 129.12062 67.5 121.82948 90.2944 121.82948 90.2944 C 121.82948 90.2944 159.82015 78.01459 159.82015 100.809 C 159.82015 112.02569 159.82015 131.36496 159.82015 151.07948 L 159.82015 189.07015 L 121.82948 189.07015 L 121.82948 189.07015 C 102.11496 189.07015 82.77569 189.07015 71.55899 189.07015 C 48.76459 189.07015 61.044404 151.07948 61.044404 151.07948 C 61.044404 151.07948 38.25 158.37062 38.25 181.47202 C 38.25 201.66166 49.856933 209.7754 67.99882 211.5 C 49.85693 213.2246 38.25 221.33834 38.25 241.52798 C 38.25 264.62938 61.0444 271.92052 61.044404 271.92052 L 61.044404 271.92052 C 61.044404 271.92052 48.76459 233.92985 71.55899 233.92985 C 82.77569 233.92985 102.11496 233.92985 121.82948 233.92985 L 121.82948 233.92985 L 121.82948 233.92985 L 159.82015 233.92985 L 159.82015 271.92052 L 159.82015 271.92052 C 159.82015 291.63504 159.82015 310.9743 159.82015 322.191 C 159.82015 344.9854 121.82948 332.7056 121.82948 332.7056 C 121.82948 332.7056 129.12062 355.5 152.22202 355.5 C 172.41166 355.5 180.5254 343.89307 182.25 325.7512 C 183.9746 343.89307 192.08834 355.5 212.27798 355.5 C 235.37938 355.5 242.67052 332.7056 242.67052 332.7056 C 242.67052 332.7056 204.67985 344.9854 204.67985 322.191 C 204.67985 310.9743 204.67985 291.63504 204.67985 271.92052 L 204.67985 271.92052 L 204.67985 271.92052 L 204.67985 233.92985 L 242.67052 233.92985 L 242.67052 233.92985 C 262.38504 233.92985 281.7243 233.92985 292.941 233.92985 C 315.7354 233.92985 303.4556 271.92052 303.4556 271.92052 C 303.4556 271.92052 326.25 264.62938 326.25 241.52798 C 326.25 221.33834 314.64307 213.2246 296.5012 211.5 C 314.64307 209.7754 326.25 201.66166 326.25 181.47202 C 326.25 158.37062 303.4556 151.07948 303.4556 151.07948 C 303.4556 151.07948 315.7354 189.07015 292.941 189.07015 C 281.7243 189.07015 262.38504 189.07015 242.67052 189.07015 L 242.67052 189.07015 L 242.67052 189.07015 L 204.67985 189.07015 L 204.67985 151.07948 L 204.67985 151.07948 C 204.67985 131.36496 204.67985 112.02569 204.67985 100.809 C 204.67985 78.01459 242.67052 90.2944 242.67052 90.2944 C 242.67052 90.2944 235.37938 67.5 212.27798 67.5 C 192.08834 67.5 183.9746 79.10693 182.25 97.24882 Z" stroke="black" stroke-linecap="round" stroke-linejoin="round" stroke-width="2"/>
      </g>
    </g>
  </g>
</svg>
