<?xml version="1.0" encoding="UTF-8" standalone="no"?>
<!DOCTYPE svg PUBLIC "-//W3C//DTD SVG 1.1//EN" "http://www.w3.org/Graphics/SVG/1.1/DTD/svg11.dtd">
<svg xmlns="http://www.w3.org/2000/svg" xmlns:dc="http://purl.org/dc/elements/1.1/" xmlns:xl="http://www.w3.org/1999/xlink" version="1.1" viewBox="58.5 89.06604 247.5 298.86792" width="247.5" height="298.86792">
  <defs>
    <clipPath id="artboard_clip_path">
      <path d="M 58.5 89.06604 L 306 89.06604 L 306 364.37203 L 306 387.93396 L 58.5 387.93396 Z"/>
    </clipPath>
  </defs>
  <g id="Eagle_(16)" fill="none" stroke-opacity="1" stroke-dasharray="none" stroke="none" fill-opacity="1">
    <title>Eagle (16)</title>
    <g id="Eagle_(16)_Layer_2" clip-path="url(#artboard_clip_path)">
      <title>Layer 2</title>
      <g id="Group_568">
        <g id="Graphic_587">
          <title>path22</title>
          <path d="M 228.30336 281.26976 L 236.54377 286.28223 L 245.69517 290.75617 L 252.2792 292.74458 L 258.03507 291.50182 L 265.65434 284.1281 L 271.03752 279.65417 L 277.12465 279.65417 L 281.3898 284.2524 L 282.13515 288.64347 L 281.76247 289.76196 L 279.48497 289.76196 L 277.53874 288.3535 L 276.8348 290.3005 L 275.17843 292.04035 L 272.3212 293.15884 L 270.4578 292.66173 L 268.88425 291.08757 L 268.7186 292.2889 L 265.9442 295.27153 L 275.9652 292.66173 L 283.37742 289.92766 L 288.3465 289.59626 L 293.52264 293.1174 L 294.93055 298.37843 L 294.2266 304.46796 L 292.94292 306.1664 L 290.83105 299.70404 L 289.46456 297.5085 L 288.47074 297.38422 L 288.3465 300.284 L 286.64874 302.76952 L 283.87433 304.6751 L 280.27174 304.6751 L 277.45593 301.98244 L 276.4621 299.4969 L 272.98375 302.1067 L 265.81998 304.79936 L 270.4992 305.79357 L 281.8453 306.29067 L 287.4355 309.2733 L 289.96146 314.6586 L 289.09187 320.91383 L 284.86815 326.38197 L 284.1642 319.7125 L 282.54924 316.9784 L 281.30697 320.12674 L 279.692 322.0323 L 276.0066 322.6951 L 272.3212 320.541 L 270.4164 316.4399 L 271.12034 313.043 L 269.75384 313.45726 L 265.24025 313.29156 L 255.59194 310.2261 L 252.98317 311.80025 L 251.07835 313.95437 L 250.58144 318.9254 L 249.33917 321.0381 L 246.689 321.94946 L 244.37008 321.7009 L 241.92694 319.4225 L 243.66613 327.2519 L 242.54808 327.2519 L 239.56663 325.4706 L 235.3015 321.12095 L 234.18345 316.85414 L 235.54995 313.8715 L 243.91458 306.4978 L 244.9084 303.3909 L 237.95167 299.74547 L 230.08395 297.25995 L 221.80214 297.13567 L 220.43564 289.5134 L 216.21191 284.00383 Z" fill="#FFFFFF"/>
        </g>
        <g id="Graphic_586">
          <title>path28</title>
          <path d="M 223.16864 290.75617 L 222.83736 288.0635 C 223.4171 289.182 224.65936 291.129 225.94304 291.54325 C 227.39236 291.9575 229.29718 292.33033 230.7879 292.57888 C 231.6989 292.74458 230.00113 293.03456 229.75268 293.076 C 228.80027 293.2831 223.33427 292.08178 223.16864 290.75617 Z" fill="black"/>
        </g>
        <g id="Graphic_585">
          <title>path30</title>
          <path d="M 221.51227 296.5557 L 222.00918 297.88133 C 225.90164 296.92854 234.59754 298.91696 236.2953 299.82832 C 239.15254 301.36106 244.20444 303.3909 244.20444 304.3437 C 244.20444 305.58644 240.8089 308.40337 238.0759 310.5989 C 234.51472 313.4987 232.03018 316.8127 234.51472 321.6595 C 235.59136 323.73075 244.24585 330.44166 246.64758 328.2461 C 244.12163 327.66616 243.21063 323.39935 243.16922 321.3695 C 244.74276 322.8608 248.0969 323.35792 250.49862 321.16238 C 252.90035 318.96683 251.8237 316.19133 252.61048 313.78866 C 252.85894 313.0016 253.5629 312.25593 254.22544 311.63455 C 256.3373 309.52185 264.41207 314.86572 269.91948 314.36862 C 267.51775 317.97263 273.6463 323.39935 275.5511 323.39935 C 279.1951 323.39935 281.4726 322.40514 282.8391 318.46973 C 283.87433 321.28665 284.1642 324.68353 283.6673 327.7076 C 287.26988 325.34634 290.95528 319.9196 290.95528 316.85414 C 290.95528 311.92452 288.38792 307.40916 283.99856 306.3321 C 277.00043 304.5508 269.75384 305.2136 262.46584 304.3437 C 263.33543 304.46796 260.80948 304.3851 261.8033 304.7165 C 263.2526 305.1722 266.06843 306.08355 269.83666 306.20782 C 275.0542 306.37352 279.1123 306.3321 283.2946 307.6163 C 286.11042 308.4862 293.02574 315.27998 285.28224 325.22206 C 285.28224 322.1566 285.40647 319.17396 283.91574 317.5998 C 282.59065 316.19133 283.2532 312.75303 284.90956 311.42742 C 281.8453 311.96595 282.3836 315.52853 281.8453 317.39267 C 281.0171 320.0439 279.36074 321.6595 276.8762 321.57663 C 275.34406 321.5352 272.65247 319.79534 272.07275 318.34545 C 271.28597 316.4399 271.07893 312.62875 273.10797 311.2203 C 270.78907 311.59312 270.20934 312.91873 268.55298 312.83588 C 266.3169 312.67018 258.2007 310.47464 255.96462 309.64613 C 253.93557 308.85905 253.31444 310.2675 252.11358 311.92452 C 251.2854 313.043 249.0907 313.45726 248.38676 311.67597 C 247.47576 313.78866 250.95412 313.3744 250.25017 317.51695 C 249.9189 319.67106 249.17353 320.41672 247.6828 320.91383 C 244.867 321.8666 244.9084 320.99668 243.16922 319.17396 C 241.7613 317.72407 241.05735 314.74145 236.95786 315.4871 C 238.36577 316.35704 240.7675 317.88977 240.97454 318.84256 C 241.47145 321.24523 243.21063 323.8136 242.42385 326.50625 C 240.14635 326.46482 235.59136 320.3753 234.97022 318.38688 C 233.23104 312.62875 244.08022 309.9361 244.9084 305.5036 C 244.99122 304.8822 245.57094 303.68088 245.19826 303.0595 C 244.32867 301.69246 237.6204 298.25415 229.8769 296.47286 C 227.84786 296.0172 223.003 296.3486 221.51227 296.5557 Z" fill="black"/>
        </g>
        <g id="Graphic_584">
          <title>path32</title>
          <path d="M 256.3787 297.13567 L 254.43248 296.39 C 255.67476 296.39 256.62716 296.1829 257.7038 296.14146 C 265.61293 295.8929 270.62343 293.7388 278.44974 290.6319 C 282.63206 289.0163 288.42933 287.77354 292.32178 290.75617 C 296.62832 294.0702 297.53932 305.08934 292.3632 307.4506 C 291.65924 304.3851 290.37556 298.46128 289.00906 298.46128 C 289.1747 301.4439 285.44788 305.29647 282.425 305.42074 C 279.27792 305.58644 277.04184 303.14235 276.21365 300.7811 C 274.35025 303.18377 267.55916 305.29647 264.70193 305.29647 C 260.8923 305.29647 258.36635 302.64524 255.79898 301.2782 C 258.03507 301.31963 259.60862 302.18956 261.05793 303.01807 C 265.65434 305.6693 276.04802 301.31963 276.58634 296.96997 C 277.20747 298.8341 277.2903 300.49112 278.98806 302.231 C 282.3836 305.62787 284.95097 304.3437 287.3527 301.15393 C 287.93242 300.36685 288.09806 298.0056 287.97383 296.5557 C 287.8496 295.6858 287.51833 295.0644 287.51833 294.0702 C 287.51833 293.4488 287.72537 292.9517 288.13947 292.70316 C 288.7192 293.69737 288.05665 295.97576 289.29892 296.76284 C 291.0381 297.96418 292.3632 303.01807 293.357 304.5508 C 293.8539 302.8938 294.10237 300.03545 294.1852 299.08266 C 294.59928 292.49603 288.3051 288.5192 280.85147 291.129 C 274.6401 293.36596 267.43493 297.42565 260.8923 297.59135 C 259.4844 297.59135 257.16548 297.42565 256.3787 297.13567 Z" fill="black"/>
        </g>
        <g id="Graphic_583">
          <title>path34</title>
          <path d="M 229.13154 281.1869 L 227.88927 281.93256 C 233.14822 285.70227 248.22112 294.52587 254.68094 293.5731 C 258.5734 292.99313 261.3478 289.76196 263.95657 287.02788 C 265.9856 284.87376 268.2631 282.34682 270.66484 280.93836 C 274.6401 278.61854 281.22415 282.22254 281.3898 289.47198 C 279.52638 289.8448 279.07088 289.09915 278.2841 288.22922 C 276.58634 286.36508 274.5573 285.61942 276.13084 282.4711 C 275.21984 282.76107 274.84715 282.84392 274.72293 284.99804 C 274.6401 286.69648 276.8348 287.8978 276.71056 289.05773 C 276.54493 290.6319 274.06038 293.32454 271.3688 292.4546 C 270.0437 291.99893 269.0499 289.63768 267.2693 289.88623 C 268.1803 290.25906 268.6772 291.21184 268.42875 292.04035 C 267.97325 293.5731 265.4059 294.65015 264.5363 294.85728 C 262.7971 295.27153 258.5734 296.26574 256.21307 296.63857 C 266.52393 296.76284 268.1803 294.5673 269.29834 292.1232 C 269.9609 293.36596 271.70007 294.15304 273.52206 293.53166 C 275.4683 292.86886 277.00043 291.129 278.07706 289.26485 C 278.53256 290.5076 282.17656 291.04614 282.50783 288.8506 C 283.37742 283.2996 279.81624 278.20428 274.35025 278.20428 C 267.84902 278.20428 264.6191 283.631 261.09934 287.60784 C 254.84657 294.733 247.84844 291.41897 241.223 287.4007 C 236.54377 284.5838 232.40286 283.2996 229.13154 281.1869 Z" fill="black"/>
        </g>
        <g id="Graphic_582">
          <title>path24</title>
          <path d="M 142.50377 282.59537 L 135.2986 282.3054 L 123.62124 290.25906 L 116.1262 293.5731 L 109.66638 294.44302 L 104.2832 291.4604 L 99.35552 283.05105 L 95.42166 279.90272 L 89.58298 280.5241 L 87.18126 283.7967 L 85.69053 288.76775 L 86.14603 291.58467 L 87.80239 290.54904 L 89.45875 288.43634 L 89.91425 291.17042 L 91.52921 293.69737 L 92.73007 294.31875 L 96.9538 292.66173 L 97.24366 294.31875 L 99.93525 297.0114 L 103.66206 298.21273 L 99.76961 299.08266 L 79.39635 290.839 L 75.5039 291.0047 L 71.611446 295.0644 L 70.12072 298.9584 L 70.286355 307.3263 L 72.066945 309.14902 L 74.92417 303.14235 L 76.4149 306.91205 L 78.94085 308.40337 L 82.08794 307.6577 L 84.36544 305.3793 L 84.6553 303.59803 L 88.83762 305.545 L 94.84193 306.45638 L 89.58298 308.40337 L 84.94517 309.14902 L 79.85185 309.439 L 76.58053 313.95437 L 75.214035 319.33966 L 78.36112 326.21627 L 81.34258 329.24032 L 81.79808 321.8666 L 84.48967 325.01494 L 90.03848 323.9793 L 92.44021 320.66527 L 91.98471 316.7713 L 106.39506 311.2203 L 112.81347 312.8773 L 109.83202 317.1027 L 110.28752 320.25102 L 113.72447 322.0323 L 115.79492 322.0323 L 118.36228 320.83097 L 119.39751 321.8666 L 119.85301 325.4706 L 119.56315 328.32896 L 122.87587 326.13342 L 125.69169 320.49957 L 124.40801 313.0016 L 117.78256 305.62787 L 124.8221 300.6154 L 133.4766 297.46707 L 141.13727 296.26574 Z" fill="#FFFFFF"/>
        </g>
        <g id="Graphic_581">
          <title>path38</title>
          <path d="M 141.50995 288.89202 L 141.38573 286.69648 C 140.806 288.3535 139.14964 290.1762 137.74173 291.0047 C 136.91355 291.4604 134.59464 291.25327 133.72505 290.6319 C 133.80787 290.9633 134.71887 291.75037 134.8845 291.87465 C 135.7955 292.33033 137.20341 292.33033 138.28005 291.9575 C 139.23245 291.6261 141.42714 288.89202 141.50995 288.89202 Z" fill="black"/>
        </g>
        <g id="Graphic_580">
          <title>path62</title>
          <path d="M 136.87214 282.59537 L 135.2986 281.684 C 127.92778 286.98646 110.74302 300.15972 103.74488 289.05773 C 100.59779 284.08668 100.43216 278.8671 93.3098 279.0742 C 86.14603 279.32277 84.82094 286.61363 85.64912 292.49603 C 86.80857 292.57888 88.50635 291.25327 89.04466 289.88623 C 89.25171 291.33612 90.03848 293.9045 92.02612 294.69157 C 93.47543 295.27153 95.00757 293.5731 96.29125 293.6145 C 97.78198 298.29558 104.07616 299.70404 107.72015 297.0114 C 104.40743 297.46707 101.92288 298.46128 98.56875 295.10583 C 97.16084 293.69737 97.32648 293.49024 97.65775 291.41897 C 96.0842 292.57888 93.01993 293.69737 92.60584 293.53166 C 91.4878 292.99313 89.50016 291.33612 90.32834 288.72632 C 90.70103 287.5664 95.95998 285.99225 92.48162 282.05684 C 94.09657 285.66085 87.63676 287.60784 86.9328 290.839 C 86.14603 289.6791 86.51871 285.9094 88.34071 283.34103 C 89.25171 282.09827 90.74244 281.3526 92.06753 281.0212 C 97.36789 279.73702 99.2313 285.1223 102.12993 289.80338 C 104.15897 293.076 106.89197 295.31295 110.28752 295.27153 C 119.56315 295.14725 130.20528 287.27643 136.87214 282.59537 Z" fill="black"/>
        </g>
        <g id="Graphic_579">
          <title>path64</title>
          <path d="M 97.98902 306.08355 C 99.6868 305.62787 103.66206 302.231 105.1942 301.6096 C 103.33079 302.6038 95.67011 306.04212 94.05516 305.835 C 91.23934 305.5036 85.31785 304.92364 85.52489 301.85816 C 85.64912 300.07687 84.36544 298.75126 82.87471 298.75126 C 85.19362 300.15972 84.1998 303.80515 83.08176 305.91785 C 81.96371 308.03054 79.189305 307.6577 77.57435 306.74635 C 72.64667 303.84658 80.47299 296.0586 74.1374 295.64436 C 76.083625 297.30137 75.13122 300.24257 74.96558 301.07108 C 74.67572 302.6038 72.85372 305.95927 71.611446 307.24346 C 69.95508 305.3379 69.91367 292.53746 77.65717 291.70895 C 81.13553 291.37755 92.52303 297.88133 95.6287 298.87554 C 96.87098 299.24836 97.98902 299.4969 99.02425 299.6626 C 102.99952 300.20115 106.02238 297.79848 107.51311 297.13567 C 104.98715 297.75705 101.46738 298.46128 98.27889 297.71563 C 94.6763 296.8457 91.0323 294.69157 88.58916 293.36596 C 82.00512 289.76196 79.10649 289.55483 78.48535 289.55483 C 74.42726 289.3477 70.327765 294.27732 69.70663 298.337 C 69.25113 301.19536 68.25731 307.90626 71.197355 309.6047 C 71.8599 310.01896 72.23258 310.47464 72.977945 310.51606 C 72.72949 307.4506 74.303035 305.3379 74.84135 304.5508 C 75.25544 306.62208 76.083625 307.40916 77.03603 308.2791 C 78.48535 309.56328 83.20598 309.2733 85.19362 304.59223 C 86.0218 305.25504 89.37594 306.62208 92.52303 306.74635 C 94.01375 306.78778 96.74675 306.41495 97.98902 306.08355 Z" fill="black"/>
        </g>
        <g id="Graphic_578">
          <title>path66</title>
          <path d="M 82.8333 330.44166 C 82.08794 329.65458 81.63244 323.73075 82.3778 324.145 C 83.24739 325.55347 83.90994 325.9263 85.44207 325.9263 C 88.63057 325.9263 93.43402 323.93788 93.26839 319.9196 C 93.22698 319.29824 92.93712 318.0969 93.47543 317.47552 C 95.29743 316.1499 101.30175 313.4987 102.66825 313.1673 C 105.40125 312.50448 109.04524 311.096 110.86724 314.0372 C 108.67256 317.30982 107.9272 320.2096 112.27515 322.28086 C 114.63547 323.44077 117.57551 321.90803 118.48651 321.41093 C 119.39751 322.28086 119.06624 328.4118 119.06624 329.0332 C 120.80542 328.82607 122.29615 327.5419 123.12433 326.63052 C 127.26523 321.9909 126.23 317.35124 125.48464 313.91294 C 125.07055 312.00737 123.04151 310.2675 121.75783 308.81762 C 120.51556 307.36773 119.64597 306.95348 118.8592 305.91785 C 120.84683 302.93522 134.8431 295.8929 142.00686 298.21273 L 141.38573 294.4016 C 138.5285 295.43723 131.98587 296.59714 129.58414 297.46707 C 127.47228 298.25415 116.99578 303.30805 117.12001 305.3379 C 117.24424 307.57486 123.0001 311.80025 123.86969 314.53432 C 125.11196 318.46973 124.8221 322.6537 122.04769 325.71917 C 121.26092 326.54767 120.30851 327.4176 119.97724 327.3762 C 120.14287 325.1392 120.2671 324.35213 120.01865 322.6951 C 119.77019 321.32808 119.23187 320.83097 119.23187 319.83677 C 119.27328 318.38688 120.10147 317.22697 120.76401 315.9428 C 118.8592 316.8127 118.9006 318.01405 118.15524 319.5468 C 117.36847 321.2038 116.70592 321.28665 115.38083 321.32808 C 112.5236 321.49378 108.71397 319.00826 112.10951 315.1557 C 113.14474 313.95437 114.3042 311.84167 114.3456 310.35036 C 113.97292 310.9303 112.77206 313.08443 110.45315 311.34457 C 109.37652 310.51606 108.13424 310.30893 106.14661 310.84746 C 101.88147 311.96595 96.62252 313.7058 92.56443 315.7771 C 90.70103 316.7713 90.65962 312.79446 87.92662 313.95437 C 89.87284 314.99 90.5768 316.68844 90.90807 317.2684 C 92.35739 319.8782 91.23934 320.8724 90.36975 322.0323 C 89.25171 323.4822 84.36544 324.72496 83.37162 322.90224 C 82.66767 321.57663 82.54344 320.2096 82.58485 318.34545 C 82.70908 315.90136 81.67385 313.6644 79.39635 314.24434 C 80.9699 315.19713 81.4668 316.35704 81.4668 318.46973 C 81.4668 320.74812 81.09412 325.0978 80.5144 326.71338 C 78.02985 324.7664 76.29067 320.7067 76.29067 318.7597 C 76.29067 315.9428 79.10649 309.64613 81.96371 309.7704 C 85.85617 309.97753 88.2993 309.06617 91.90189 308.3205 C 93.80671 307.90626 99.18989 305.79357 100.80484 304.17798 C 98.52734 304.96506 89.83144 307.90626 87.26407 308.1548 C 82.21217 308.6105 78.56817 308.07196 76.8704 311.96595 C 75.87658 314.2029 74.22022 318.01405 75.214035 321.28665 C 75.75235 323.10937 79.89326 330.3174 82.8333 330.44166 Z" fill="black"/>
        </g>
        <g id="Graphic_577">
          <title>path26</title>
          <path d="M 175.58962 148.50149 C 184.53398 151.27699 176.54203 165.23733 167.55626 163.04179 C 162.54576 161.84045 150.12304 156.8694 149.9574 169.00704 C 152.649 167.43287 154.9265 167.22575 156.25158 167.64 C 158.1564 168.26138 161.63476 171.244 163.58099 172.11394 C 162.83562 173.6881 158.48767 176.4636 158.23922 178.61772 C 154.0155 174.06093 151.11686 173.81238 150.33009 173.23242 C 147.92836 171.45113 141.34432 172.81817 138.28005 172.3625 C 128.4661 170.9126 120.68119 156.95226 125.07055 147.25873 C 125.48464 148.79146 128.9216 150.4899 130.08105 151.64981 C 131.07487 152.68545 135.21578 154.34246 137.20341 153.38968 C 132.23432 147.46585 130.41232 144.64893 130.82641 139.34648 C 131.44755 132.30417 136.2096 124.3505 139.48091 118.67523 C 147.80413 104.17635 132.39996 92.86723 120.14287 96.67836 C 113.26897 98.79106 102.4612 103.30642 96.33266 99.03961 C 87.47112 92.86723 83.24739 89.96746 77.03603 96.13983 C 81.30117 96.47124 84.28262 96.76121 86.31167 100.15809 C 87.34689 101.85653 92.19175 110.18303 96.20843 110.63871 C 91.28075 113.99416 85.02798 122.07211 80.01749 127.08458 C 77.65717 129.44582 74.63431 132.22132 70.9489 132.55272 C 67.38772 132.88413 65.81418 131.10284 63.619496 129.48725 C 62.08736 136.52956 66.725176 147.5487 74.303036 148.0458 C 86.22885 148.87431 89.6658 142.03913 93.22698 139.13936 C 92.97853 140.5064 82.12935 152.51975 80.80426 154.05248 C 77.82281 157.36651 72.23258 167.8057 63.45386 161.01194 C 62.04595 167.64 63.74372 173.72953 70.9489 176.87786 C 79.23071 180.48186 92.3988 169.95982 96.87098 163.45604 C 94.26221 169.00704 84.07558 181.43465 81.88089 183.75447 C 79.27212 186.5714 75.13122 190.8382 72.35681 192.7852 C 68.79563 195.27072 65.68995 193.2823 64.15781 191.21103 C 63.205405 199.74465 65.81418 208.19543 73.06076 209.23106 C 77.864215 209.9353 82.62626 208.85823 87.51253 205.08852 C 87.8438 204.83997 100.05948 189.844 102.29557 187.64845 C 99.6868 192.99232 88.42353 210.01814 84.69671 214.32638 C 81.9223 217.51613 75.42108 223.48138 71.48722 226.1326 C 69.70663 227.33394 65.81418 226.09118 63.78513 223.56423 C 63.82654 230.5237 64.571904 236.77892 69.83086 240.3415 C 76.12503 244.5669 85.15221 242.32992 92.02612 235.4119 C 101.71584 225.67693 113.35179 204.83997 116.33324 200.44888 C 114.09715 208.69253 100.84625 235.909 96.24984 242.1228 C 91.98471 247.88092 82.41921 255.0475 76.994625 259.52145 C 74.84135 261.30274 70.36917 261.34416 63.82654 257.74015 C 65.11022 281.4769 91.28075 276.54727 98.11325 269.5878 C 117.32706 250.03504 122.87587 237.44173 131.15769 219.4217 C 130.20528 228.99096 128.963 232.42926 126.85114 241.25286 C 125.85733 245.43682 123.24855 252.7277 121.30233 256.24884 C 120.14287 258.3201 115.79492 263.12545 112.77206 266.02523 C 136.49946 268.55217 150.12304 260.2671 151.03404 229.36378 C 152.48336 232.42926 160.64094 250.53214 159.85417 253.26622 C 154.38817 260.80563 148.63231 269.04928 144.0359 272.32188 C 136.58227 277.5829 131.90305 274.84883 124.53224 273.60607 C 126.02296 278.36998 134.26337 285.2466 141.50995 284.83234 C 139.77077 288.43634 140.14345 300.07687 140.39191 304.46796 C 140.64036 309.02475 146.18918 320.2096 148.25963 323.4822 C 147.6385 311.01317 153.76704 302.8938 162.04885 295.60293 C 163.58099 303.43232 169.33685 314.28577 172.60816 323.4822 C 175.25834 330.8559 174.1403 344.48485 162.38012 345.10623 C 159.1088 345.27194 155.13354 342.33074 153.89127 340.3009 C 151.65518 336.65546 155.09213 333.9628 155.58904 331.0216 C 155.79608 329.94455 146.23059 330.6488 142.95927 333.9628 C 138.69414 338.27105 137.49327 341.4608 138.32146 346.0176 C 126.51987 339.43096 106.35365 325.38776 89.99707 337.81537 C 76.00081 348.42026 72.27399 364.53473 82.62626 375.0982 C 80.9699 369.5472 80.92849 357.161 96.74675 359.5637 C 113.10333 362.0078 116.49888 375.34675 137.86596 378.61935 C 154.80226 381.1877 164.0779 377.0866 177.3288 361.3864 C 177.86712 366.68885 171.8214 375.51245 168.46726 379.61356 C 168.05317 380.11066 175.9209 380.60777 177.49443 379.57213 C 177.86712 381.10487 181.55252 384.66745 182.75339 385.7445 C 187.14275 381.60197 186.81147 379.655 187.3912 379.4893 C 189.1718 380.3592 192.48452 380.3178 196.5426 378.49507 C 189.6687 373.6483 186.85288 364.74185 187.47402 361.3864 C 196.58401 371.8256 203.12665 379.28215 219.60746 379.28215 C 225.36332 379.28215 233.0654 376.79663 237.99308 375.01534 C 240.43622 374.1454 250.0017 368.0973 251.86512 366.2746 C 258.82184 359.35656 272.48684 352.68708 279.31933 363.2091 C 280.81006 365.52894 281.63824 368.01446 281.34838 372.90265 C 284.37124 363.5405 285.0752 359.97794 282.25938 349.20735 C 280.5616 342.70356 267.2693 333.59 258.44916 333.59 C 249.9603 333.2586 244.0388 336.0341 236.7508 339.5138 C 231.74031 341.87506 232.5271 344.94053 226.77123 344.94053 C 229.25577 337.2354 227.72363 336.32406 225.3219 333.2586 C 221.6365 328.5775 215.05246 329.11605 208.7997 331.6844 C 208.7997 331.93297 213.8102 334.99845 213.56173 337.8568 C 213.31328 341.08797 210.99437 343.2835 205.6112 343.98775 C 199.7311 344.77483 191.9462 339.3067 191.40788 334.04566 C 189.7101 317.47552 202.25706 308.19624 202.25706 294.31875 C 209.13096 301.15393 216.83305 311.46884 218.61364 320.00247 C 220.51846 315.61138 222.17482 309.31473 222.17482 302.14814 C 222.17482 295.8515 224.20386 287.235 218.15814 284.4181 C 225.7774 284.4595 239.35958 279.0328 242.83794 272.77756 C 226.6056 272.77756 224.12105 270.3749 217.20573 265.8181 C 211.90537 262.29694 209.91773 256.74595 206.0667 252.9348 C 209.338 243.86266 213.23046 233.92057 214.7626 224.43417 C 215.75641 237.2346 220.43564 257.07735 232.81695 262.95975 C 237.2063 265.03102 250.74708 265.321 252.6933 260.39138 C 241.38863 255.58604 235.7984 222.3629 233.9764 215.1963 C 234.846 219.71168 247.1445 244.60832 252.48626 253.30764 C 258.69762 263.374 270.4992 275.38736 283.08756 275.38736 C 291.24515 275.38736 302.17714 264.45106 298.90582 254.0533 C 294.55787 261.2199 284.7025 257.6573 282.92192 255.91744 C 270.74766 244.0698 258.6148 223.9785 252.98317 210.05957 C 258.1179 218.5932 269.29834 237.81456 279.40215 241.08716 C 286.35888 243.36556 301.80446 237.19318 299.7754 222.6943 C 298.49173 223.06713 291.78346 227.33394 289.00906 224.88985 C 276.13084 213.66357 265.8614 195.5607 260.72666 187.48275 L 278.11847 204.63285 C 280.76865 207.24264 284.7025 207.86402 288.84342 206.70411 C 295.179 205.00567 300.76923 197.46626 299.81682 190.09255 C 299.94105 190.5068 295.0962 194.31793 291.78346 192.03954 C 284.53688 186.98564 265.9028 163.91172 263.2526 157.86362 C 263.54248 157.65649 276.66915 175.34512 286.4417 175.8008 C 293.02574 176.09077 303.00532 167.10147 299.52696 159.18923 C 286.35888 168.67564 272.40402 140.5064 265.8614 132.46987 C 270.83047 135.6182 281.67965 145.64314 289.87865 145.14603 C 295.6345 144.7732 303.95773 136.57098 300.81064 129.32155 C 292.07333 133.96119 287.68397 127.37455 282.50783 122.23781 C 278.6982 118.42668 273.93615 112.29572 269.29834 107.94606 C 272.44543 104.92201 272.19697 105.50196 275.38547 102.22936 C 277.7458 99.78527 284.03997 94.23427 288.3465 94.44139 C 275.5511 85.16211 266.23407 99.03961 258.82184 99.70241 C 251.3268 100.3238 232.03018 84.83071 223.66555 100.19952 C 221.34664 104.4249 221.84355 110.01733 222.42327 112.00575 C 223.99682 117.59817 228.59322 123.97767 231.03636 128.90729 C 232.85836 132.677 233.85218 137.60662 233.85218 142.20483 C 233.85218 145.85026 231.74031 148.75004 230.3324 151.40126 C 234.14204 150.8213 234.34909 149.78567 236.33672 147.50728 C 237.579 146.05739 239.73226 144.06897 240.8503 140.92065 C 243.956 147.383 246.81322 158.44357 236.17108 168.6342 C 232.03018 172.61104 227.5994 170.82975 221.30523 169.83555 C 218.61364 169.37987 214.55555 171.03688 211.0772 172.32107 C 209.46224 172.90102 206.72924 176.71215 206.72924 176.4636 C 202.38128 167.51573 210.7045 155.62665 212.60932 149.45427 C 216.25332 137.68947 212.4851 134.74827 208.26137 129.5701 C 210.41464 130.85428 211.6155 130.48146 214.01723 130.48146 C 216.29473 130.48146 218.4894 125.80039 219.06914 124.0191 C 212.23664 127.4574 210.6217 123.89482 206.0667 117.30819 C 204.3275 114.82267 199.35842 111.46722 197.08092 110.84584 C 197.08092 110.84584 186.44452 105.88024 180.75268 105.84875 C 174.94491 105.81663 164.03649 110.76298 164.03649 110.76298 L 164.24353 111.96432 L 167.22499 113.62133 L 167.92894 116.35541 L 167.22499 118.71665 L 164.45058 121.11932 L 169.33685 126.00752 L 181.51111 130.19148 L 184.36834 134.08546 L 184.07848 139.80216 L 181.59393 144.2761 L 177.49443 146.96875 Z" fill="#FFFFFF"/>
          <path d="M 175.58962 148.50149 C 184.53398 151.27699 176.54203 165.23733 167.55626 163.04179 C 162.54576 161.84045 150.12304 156.8694 149.9574 169.00704 C 152.649 167.43287 154.9265 167.22575 156.25158 167.64 C 158.1564 168.26138 161.63476 171.244 163.58099 172.11394 C 162.83562 173.6881 158.48767 176.4636 158.23922 178.61772 C 154.0155 174.06093 151.11686 173.81238 150.33009 173.23242 C 147.92836 171.45113 141.34432 172.81817 138.28005 172.3625 C 128.4661 170.9126 120.68119 156.95226 125.07055 147.25873 C 125.48464 148.79146 128.9216 150.4899 130.08105 151.64981 C 131.07487 152.68545 135.21578 154.34246 137.20341 153.38968 C 132.23432 147.46585 130.41232 144.64893 130.82641 139.34648 C 131.44755 132.30417 136.2096 124.3505 139.48091 118.67523 C 147.80413 104.17635 132.39996 92.86723 120.14287 96.67836 C 113.26897 98.79106 102.4612 103.30642 96.33266 99.03961 C 87.47112 92.86723 83.24739 89.96746 77.03603 96.13983 C 81.30117 96.47124 84.28262 96.76121 86.31167 100.15809 C 87.34689 101.85653 92.19175 110.18303 96.20843 110.63871 C 91.28075 113.99416 85.02798 122.07211 80.01749 127.08458 C 77.65717 129.44582 74.63431 132.22132 70.9489 132.55272 C 67.38772 132.88413 65.81418 131.10284 63.619496 129.48725 C 62.08736 136.52956 66.725176 147.5487 74.303036 148.0458 C 86.22885 148.87431 89.6658 142.03913 93.22698 139.13936 C 92.97853 140.5064 82.12935 152.51975 80.80426 154.05248 C 77.82281 157.36651 72.23258 167.8057 63.45386 161.01194 C 62.04595 167.64 63.74372 173.72953 70.9489 176.87786 C 79.23071 180.48186 92.3988 169.95982 96.87098 163.45604 C 94.26221 169.00704 84.07558 181.43465 81.88089 183.75447 C 79.27212 186.5714 75.13122 190.8382 72.35681 192.7852 C 68.79563 195.27072 65.68995 193.2823 64.15781 191.21103 C 63.205405 199.74465 65.81418 208.19543 73.06076 209.23106 C 77.864215 209.9353 82.62626 208.85823 87.51253 205.08852 C 87.8438 204.83997 100.05948 189.844 102.29557 187.64845 C 99.6868 192.99232 88.42353 210.01814 84.69671 214.32638 C 81.9223 217.51613 75.42108 223.48138 71.48722 226.1326 C 69.70663 227.33394 65.81418 226.09118 63.78513 223.56423 C 63.82654 230.5237 64.571904 236.77892 69.83086 240.3415 C 76.12503 244.5669 85.15221 242.32992 92.02612 235.4119 C 101.71584 225.67693 113.35179 204.83997 116.33324 200.44888 C 114.09715 208.69253 100.84625 235.909 96.24984 242.1228 C 91.98471 247.88092 82.41921 255.0475 76.994625 259.52145 C 74.84135 261.30274 70.36917 261.34416 63.82654 257.74015 C 65.11022 281.4769 91.28075 276.54727 98.11325 269.5878 C 117.32706 250.03504 122.87587 237.44173 131.15769 219.4217 C 130.20528 228.99096 128.963 232.42926 126.85114 241.25286 C 125.85733 245.43682 123.24855 252.7277 121.30233 256.24884 C 120.14287 258.3201 115.79492 263.12545 112.77206 266.02523 C 136.49946 268.55217 150.12304 260.2671 151.03404 229.36378 C 152.48336 232.42926 160.64094 250.53214 159.85417 253.26622 C 154.38817 260.80563 148.63231 269.04928 144.0359 272.32188 C 136.58227 277.5829 131.90305 274.84883 124.53224 273.60607 C 126.02296 278.36998 134.26337 285.2466 141.50995 284.83234 C 139.77077 288.43634 140.14345 300.07687 140.39191 304.46796 C 140.64036 309.02475 146.18918 320.2096 148.25963 323.4822 C 147.6385 311.01317 153.76704 302.8938 162.04885 295.60293 C 163.58099 303.43232 169.33685 314.28577 172.60816 323.4822 C 175.25834 330.8559 174.1403 344.48485 162.38012 345.10623 C 159.1088 345.27194 155.13354 342.33074 153.89127 340.3009 C 151.65518 336.65546 155.09213 333.9628 155.58904 331.0216 C 155.79608 329.94455 146.23059 330.6488 142.95927 333.9628 C 138.69414 338.27105 137.49327 341.4608 138.32146 346.0176 C 126.51987 339.43096 106.35365 325.38776 89.99707 337.81537 C 76.00081 348.42026 72.27399 364.53473 82.62626 375.0982 C 80.9699 369.5472 80.92849 357.161 96.74675 359.5637 C 113.10333 362.0078 116.49888 375.34675 137.86596 378.61935 C 154.80226 381.1877 164.0779 377.0866 177.3288 361.3864 C 177.86712 366.68885 171.8214 375.51245 168.46726 379.61356 C 168.05317 380.11066 175.9209 380.60777 177.49443 379.57213 C 177.86712 381.10487 181.55252 384.66745 182.75339 385.7445 C 187.14275 381.60197 186.81147 379.655 187.3912 379.4893 C 189.1718 380.3592 192.48452 380.3178 196.5426 378.49507 C 189.6687 373.6483 186.85288 364.74185 187.47402 361.3864 C 196.58401 371.8256 203.12665 379.28215 219.60746 379.28215 C 225.36332 379.28215 233.0654 376.79663 237.99308 375.01534 C 240.43622 374.1454 250.0017 368.0973 251.86512 366.2746 C 258.82184 359.35656 272.48684 352.68708 279.31933 363.2091 C 280.81006 365.52894 281.63824 368.01446 281.34838 372.90265 C 284.37124 363.5405 285.0752 359.97794 282.25938 349.20735 C 280.5616 342.70356 267.2693 333.59 258.44916 333.59 C 249.9603 333.2586 244.0388 336.0341 236.7508 339.5138 C 231.74031 341.87506 232.5271 344.94053 226.77123 344.94053 C 229.25577 337.2354 227.72363 336.32406 225.3219 333.2586 C 221.6365 328.5775 215.05246 329.11605 208.7997 331.6844 C 208.7997 331.93297 213.8102 334.99845 213.56173 337.8568 C 213.31328 341.08797 210.99437 343.2835 205.6112 343.98775 C 199.7311 344.77483 191.9462 339.3067 191.40788 334.04566 C 189.7101 317.47552 202.25706 308.19624 202.25706 294.31875 C 209.13096 301.15393 216.83305 311.46884 218.61364 320.00247 C 220.51846 315.61138 222.17482 309.31473 222.17482 302.14814 C 222.17482 295.8515 224.20386 287.235 218.15814 284.4181 C 225.7774 284.4595 239.35958 279.0328 242.83794 272.77756 C 226.6056 272.77756 224.12105 270.3749 217.20573 265.8181 C 211.90537 262.29694 209.91773 256.74595 206.0667 252.9348 C 209.338 243.86266 213.23046 233.92057 214.7626 224.43417 C 215.75641 237.2346 220.43564 257.07735 232.81695 262.95975 C 237.2063 265.03102 250.74708 265.321 252.6933 260.39138 C 241.38863 255.58604 235.7984 222.3629 233.9764 215.1963 C 234.846 219.71168 247.1445 244.60832 252.48626 253.30764 C 258.69762 263.374 270.4992 275.38736 283.08756 275.38736 C 291.24515 275.38736 302.17714 264.45106 298.90582 254.0533 C 294.55787 261.2199 284.7025 257.6573 282.92192 255.91744 C 270.74766 244.0698 258.6148 223.9785 252.98317 210.05957 C 258.1179 218.5932 269.29834 237.81456 279.40215 241.08716 C 286.35888 243.36556 301.80446 237.19318 299.7754 222.6943 C 298.49173 223.06713 291.78346 227.33394 289.00906 224.88985 C 276.13084 213.66357 265.8614 195.5607 260.72666 187.48275 L 278.11847 204.63285 C 280.76865 207.24264 284.7025 207.86402 288.84342 206.70411 C 295.179 205.00567 300.76923 197.46626 299.81682 190.09255 C 299.94105 190.5068 295.0962 194.31793 291.78346 192.03954 C 284.53688 186.98564 265.9028 163.91172 263.2526 157.86362 C 263.54248 157.65649 276.66915 175.34512 286.4417 175.8008 C 293.02574 176.09077 303.00532 167.10147 299.52696 159.18923 C 286.35888 168.67564 272.40402 140.5064 265.8614 132.46987 C 270.83047 135.6182 281.67965 145.64314 289.87865 145.14603 C 295.6345 144.7732 303.95773 136.57098 300.81064 129.32155 C 292.07333 133.96119 287.68397 127.37455 282.50783 122.23781 C 278.6982 118.42668 273.93615 112.29572 269.29834 107.94606 C 272.44543 104.92201 272.19697 105.50196 275.38547 102.22936 C 277.7458 99.78527 284.03997 94.23427 288.3465 94.44139 C 275.5511 85.16211 266.23407 99.03961 258.82184 99.70241 C 251.3268 100.3238 232.03018 84.83071 223.66555 100.19952 C 221.34664 104.4249 221.84355 110.01733 222.42327 112.00575 C 223.99682 117.59817 228.59322 123.97767 231.03636 128.90729 C 232.85836 132.677 233.85218 137.60662 233.85218 142.20483 C 233.85218 145.85026 231.74031 148.75004 230.3324 151.40126 C 234.14204 150.8213 234.34909 149.78567 236.33672 147.50728 C 237.579 146.05739 239.73226 144.06897 240.8503 140.92065 C 243.956 147.383 246.81322 158.44357 236.17108 168.6342 C 232.03018 172.61104 227.5994 170.82975 221.30523 169.83555 C 218.61364 169.37987 214.55555 171.03688 211.0772 172.32107 C 209.46224 172.90102 206.72924 176.71215 206.72924 176.4636 C 202.38128 167.51573 210.7045 155.62665 212.60932 149.45427 C 216.25332 137.68947 212.4851 134.74827 208.26137 129.5701 C 210.41464 130.85428 211.6155 130.48146 214.01723 130.48146 C 216.29473 130.48146 218.4894 125.80039 219.06914 124.0191 C 212.23664 127.4574 210.6217 123.89482 206.0667 117.30819 C 204.3275 114.82267 199.35842 111.46722 197.08092 110.84584 C 197.08092 110.84584 186.44452 105.88024 180.75268 105.84875 C 174.94491 105.81663 164.03649 110.76298 164.03649 110.76298 L 164.24353 111.96432 L 167.22499 113.62133 L 167.92894 116.35541 L 167.22499 118.71665 L 164.45058 121.11932 L 169.33685 126.00752 L 181.51111 130.19148 L 184.36834 134.08546 L 184.07848 139.80216 L 181.59393 144.2761 L 177.49443 146.96875 Z" stroke="black" stroke-linecap="round" stroke-linejoin="round" stroke-width="1.7451201"/>
        </g>
        <g id="Graphic_576">
          <title>path46</title>
          <path d="M 172.8152 143.57187 C 165.65144 138.84938 156.04454 144.06897 149.08781 142.82621 C 141.717 141.45918 134.76028 137.48234 140.39191 127.49883 C 144.45 134.04404 149.75036 134.7897 159.23303 134.87254 C 166.06553 134.91397 172.85662 135.9496 177.53584 139.71931 C 177.12175 141.08635 175.0513 143.03334 172.8152 143.57187 Z" fill="black"/>
        </g>
        <g id="Graphic_575">
          <title>path48</title>
          <path d="M 140.43332 129.32155 C 136.95496 135.36965 141.717 139.55361 148.094 141.37632 C 154.34676 143.15761 158.1564 140.71352 166.23117 140.6721 C 169.41967 140.6721 172.7738 141.37632 173.7262 142.12198 C 175.58962 141.45918 176.58343 139.92644 176.4178 139.80216 C 174.30594 138.18657 169.95798 137.10951 167.80471 136.69526 C 159.89558 134.99682 158.1564 136.32243 152.15208 135.82533 C 144.24295 135.1211 142.87645 133.09125 140.43332 129.32155 Z" fill="#FFFFFF"/>
        </g>
        <g id="Graphic_574">
          <title>path50</title>
          <path d="M 165.56862 121.28503 C 166.27258 123.31487 169.50248 125.55184 172.40112 126.54605 C 175.34116 127.54025 179.27502 128.07878 182.29789 129.94293 C 187.8053 133.29838 184.94807 142.53623 180.35166 146.2231 C 177.12175 148.83289 168.2188 149.78567 161.8418 153.14113 C 161.51053 153.30683 161.05503 152.51975 160.97222 152.31262 C 160.64094 151.40126 163.04267 148.17008 163.78803 147.30015 C 167.47344 142.78479 177.7843 143.6133 177.70148 138.02087 C 177.66007 133.91976 166.27258 133.75406 163.99508 131.55851 C 160.72376 128.41019 156.16876 124.6819 155.29917 130.3986 C 153.31154 126.67032 152.85604 126.9603 152.11068 125.30329 C 150.827 122.36209 151.03404 119.87656 151.90363 118.1367 C 153.1045 115.8583 155.05072 115.48548 157.61808 115.07122 C 158.77754 112.7514 161.05503 111.26009 163.12549 111.01154 C 165.11312 110.76298 167.55626 112.42 168.13598 114.49127 C 168.71571 116.35541 168.6329 118.71665 165.56862 121.28503 Z" fill="black"/>
        </g>
        <g id="Graphic_573">
          <title>path52</title>
          <path d="M 162.00744 119.95941 C 169.1298 120.87077 168.6743 112.5857 163.12549 112.5857 C 160.55813 112.5857 159.64713 114.98837 158.81894 116.60396 C 157.12117 116.64539 152.35913 116.31398 152.52477 121.53358 C 152.60758 123.39772 153.93267 126.09037 154.76086 127.00173 C 158.23922 122.81776 162.21449 129.073 165.23735 130.60573 C 166.72808 131.35139 169.5853 132.0142 172.48394 132.63557 C 176.95612 133.6712 180.80716 136.40528 177.20457 141.37632 C 174.84425 144.6075 165.98271 143.82042 163.2083 149.45427 C 161.55194 152.80972 163.70521 150.94558 166.3968 150.1585 C 175.9623 147.383 184.28552 144.98033 183.91284 135.36965 C 183.7058 129.69437 171.57294 128.03736 169.17121 126.38034 C 167.59767 125.26186 161.88322 120.70507 162.00744 119.95941 Z" fill="#FFFFFF"/>
        </g>
        <g id="Graphic_572">
          <title>path54</title>
          <path d="M 180.0618 117.18392 L 173.85044 116.52111 L 168.71571 116.27256 C 167.88753 118.92378 167.63908 123.522 170.70335 124.93046 C 172.69098 125.84182 176.58343 125.96609 178.19839 123.89482 C 179.56489 122.11353 179.89616 119.50374 180.0618 117.18392 Z" fill="black"/>
        </g>
        <g id="Graphic_571">
          <title>path56</title>
          <path d="M 178.86093 117.22534 L 173.97466 116.52111 L 169.75094 116.31398 C 169.70953 118.59238 168.13598 123.39772 172.48394 124.26765 C 178.36402 125.46899 179.02657 119.71086 178.86093 117.22534 Z" fill="white"/>
        </g>
        <g id="Graphic_570">
          <title>path58</title>
          <path d="M 175.67244 117.10106 L 173.93325 116.47968 L 172.69098 116.43826 C 171.65576 117.30819 171.07603 119.25518 171.4073 120.37367 C 171.73857 121.36788 172.64957 122.36209 173.89185 122.27923 C 175.42398 122.23781 176.4178 120.16654 176.12793 120.33224 C 172.98085 122.23781 171.4487 117.18392 175.67244 117.10106 Z" fill="black"/>
        </g>
        <g id="Graphic_569">
          <title>path60</title>
          <path d="M 168.46726 116.06543 C 174.1817 116.10686 179.44066 116.89394 185.81766 117.10106 C 185.94188 117.34962 185.85907 117.55674 185.48638 117.59817 C 183.83002 117.971 178.03275 117.6396 177.28739 117.51532 C 175.58962 117.26677 170.08221 117.01821 168.34303 116.85251 C 168.09458 116.81109 168.42585 116.10686 168.46726 116.06543 Z" fill="black"/>
        </g>
      </g>
    </g>
  </g>
</svg>
