<?xml version="1.0" encoding="UTF-8" standalone="no"?>
<!DOCTYPE svg PUBLIC "-//W3C//DTD SVG 1.1//EN" "http://www.w3.org/Graphics/SVG/1.1/DTD/svg11.dtd">
<svg xmlns="http://www.w3.org/2000/svg" xmlns:dc="http://purl.org/dc/elements/1.1/" xmlns:xl="http://www.w3.org/1999/xlink" version="1.1" viewBox="36 63 292.5 292.5" width="292.5" height="292.5">
  <defs>
    <clipPath id="artboard_clip_path">
      <path d="M 36 63 L 328.5 63 L 328.5 332.4401 L 328.5 355.5 L 36 355.5 Z"/>
    </clipPath>
  </defs>
  <g id="Rose_(10)" fill="none" stroke-opacity="1" stroke-dasharray="none" stroke="none" fill-opacity="1">
    <title>Rose (10)</title>
    <g id="Rose_(10)_Content" clip-path="url(#artboard_clip_path)">
      <title>Content</title>
      <g id="Group_1038">
        <g id="Graphic_1119">
          <path d="M 176.94041 66.09949 C 176.57148 66.30445 175.87462 67.20627 175.4647 68.026114 C 175.05478 68.845955 174.11196 70.19869 173.4151 70.97754 C 172.75922 71.75639 171.77541 73.10913 171.24252 73.96996 C 170.70962 74.8308 169.52085 76.51147 168.53704 77.74123 L 166.77438 79.91381 L 163.41303 80.36472 C 118.19879 86.6775 79.66626 114.42912 59.293204 155.3392 C 57.85848 158.20864 56.2188 161.73396 55.6859 163.16868 C 54.743085 165.7102 54.62011 165.83317 52.24257 166.93995 C 50.68487 167.6778 48.4713 168.2517 46.09376 168.57963 C 40.764793 169.2765 39.166103 170.21932 38.30527 173.33471 C 37.977333 174.4825 39.166103 177.024 40.354873 177.80285 C 40.846778 178.13078 41.830587 179.15559 42.52745 180.1394 C 43.183325 181.1232 44.741023 182.88586 45.8888 184.11562 C 48.30733 186.69812 48.22535 185.67332 46.749634 194.97852 C 41.584635 227.85415 48.71725 261.79558 66.71277 289.87514 C 72.041734 298.19652 78.27253 305.78006 86.63491 314.10144 L 92.61975 320.0863 L 92.61975 322.87374 C 92.61975 325.41525 93.15264 328.94057 94.34141 334.31053 C 95.24324 338.40973 98.07169 339.43454 101.1461 336.81104 C 102.1299 335.9502 104.34348 334.80243 106.51606 333.9826 L 110.20534 332.58886 L 112.58288 334.06458 C 116.6001 336.4831 125.82332 340.95124 131.19328 343.08283 C 160.33863 354.6836 192.27144 355.99533 222.35961 346.7721 C 231.99275 343.8207 244.00342 338.45073 252.4478 333.3677 L 255.85013 331.3181 L 258.26866 332.3019 C 259.5804 332.8348 261.75298 333.57267 263.02374 333.9416 C 264.33548 334.31053 267.24592 335.5403 269.50048 336.68807 C 274.6245 339.22958 276.46913 339.5575 278.1088 338.1638 C 279.1746 337.22096 279.2566 336.975 279.2156 334.31053 C 279.1336 329.7604 277.32997 320.0863 276.30516 318.65156 C 275.85425 317.9547 275.44433 317.09386 275.44433 316.68394 C 275.44433 316.27402 277.6989 313.65053 280.48635 310.82208 C 297.04715 293.81037 308.48393 273.43732 314.59175 249.90788 C 317.5022 238.55308 318.64996 229.1659 318.64996 215.88447 C 318.64996 205.06257 318.07607 198.87277 316.3544 189.9365 L 315.45258 185.34539 L 317.3382 183.37777 C 320.37163 180.26237 323.81496 175.5073 325.0857 172.67884 C 327.58623 167.1859 326.80738 166.53003 315.20663 164.6444 C 311.7223 164.0705 308.7299 163.6196 308.5659 163.6196 C 308.36095 163.6196 308.23798 163.41464 308.23798 163.16868 C 308.23798 162.96372 306.96722 160.13527 305.4505 156.93789 C 298.56385 142.63166 290.24246 130.82595 278.92866 119.51214 C 255.56318 96.10567 226.21287 82.45532 193.25525 79.585875 L 188.3362 79.17595 L 186.8195 77.4133 C 185.95867 76.47048 185.2618 75.48667 185.2618 75.24072 C 185.2618 75.03576 184.68791 73.92897 183.99105 72.822185 C 183.29418 71.67441 182.43335 70.034725 182.10541 69.1329 C 181.03962 66.14048 178.99002 64.91072 176.94041 66.09949 Z" fill="black"/>
        </g>
        <g id="Graphic_1118">
          <path d="M 179.31795 69.829765 C 179.48192 70.56762 180.26077 72.207304 180.99863 73.43707 C 181.77748 74.70782 182.39236 75.8556 182.39236 76.06056 C 182.39236 76.26552 183.08922 77.3723 183.95005 78.52008 C 184.81089 79.66786 185.87668 81.22556 186.2866 81.92242 C 187.3524 83.72607 186.73751 84.29996 183.78609 84.25897 C 181.90045 84.25897 181.6135 84.34095 181.77748 84.91484 C 181.98244 85.61171 179.23597 90.2848 178.25216 90.85869 C 177.67827 91.22762 176.07958 89.50595 175.21875 87.57933 C 174.68585 86.34956 171.93938 83.52111 170.17672 82.37333 L 169.2749 81.75845 L 170.50466 80.03679 C 171.20152 79.09397 172.02137 78.23314 172.3493 78.06917 C 172.67724 77.94619 172.96418 77.4133 172.96418 76.8804 C 172.96418 76.3475 173.12815 75.89659 173.29212 75.89659 C 173.49708 75.89659 174.02998 75.199725 174.52188 74.2979 C 175.01379 73.43707 175.71065 72.49425 176.07958 72.16631 C 176.40752 71.87937 177.06339 70.93655 177.5143 70.07572 C 178.49811 68.14909 178.94902 68.1081 179.31795 69.829765 Z" fill="#FFFFFF"/>
        </g>
        <g id="Graphic_1117">
          <path d="M 168.04514 83.76706 C 168.04514 83.93103 168.98795 85.1198 170.13573 86.39056 C 172.18533 88.68611 174.19394 92.21143 174.19394 93.60516 C 174.19394 94.01508 174.35791 94.34302 174.56287 94.34302 C 174.76783 94.34302 175.21875 94.9579 175.54668 95.65476 C 176.03859 96.72056 176.24355 99.46702 176.4895 108.48528 C 176.73545 118.93825 176.69446 120.04504 176.07958 120.70091 C 175.4237 121.31579 175.4647 121.43877 176.24355 122.21762 C 176.94041 122.91448 177.06339 123.57035 177.06339 126.3988 C 177.06339 129.63718 176.4485 135.29408 176.03859 135.66301 C 175.9566 135.78599 174.11196 136.03194 171.98037 136.2779 C 168.57803 136.64682 167.96315 136.60583 167.02033 135.99095 C 166.07752 135.37607 165.91355 135.37607 165.33966 135.94996 C 164.47883 136.81079 162.96212 137.54865 160.29764 138.40948 C 156.3214 139.72123 150.6645 143.32853 150.1726 144.88622 C 150.00863 145.46011 149.6807 145.58309 148.98383 145.41912 C 148.082 145.17317 148.00002 145.33714 147.5901 147.96063 C 147.34415 149.47734 146.97522 153.16662 146.81125 156.15904 C 146.40133 162.75876 146.15538 163.20967 143.16296 162.5538 C 142.05617 162.30785 139.76062 161.65198 137.99796 161.16007 C 134.96454 160.21725 134.6776 160.17626 129.88153 160.66817 C 126.9301 160.95511 124.22463 161.488 123.19982 161.93892 C 120.82228 163.00471 114.67348 168.49765 113.19776 170.91618 C 112.54189 172.02297 111.10717 173.9086 110.00038 175.13836 C 107.13094 178.37674 105.08133 181.77908 104.50744 184.2386 C 103.85157 186.94408 102.99074 188.62475 102.29387 188.62475 C 101.96594 188.62475 101.35106 188.13285 100.90014 187.55896 C 100.16229 186.49316 99.95733 186.45217 96.06308 186.41118 C 91.67693 186.37019 81.59288 184.85348 78.88741 183.82868 C 77.98558 183.50074 75.854 182.88586 74.17332 182.47594 C 68.270465 181.00023 66.63078 180.0984 63.80233 176.90102 C 62.4086 175.30233 60.56396 172.59686 59.74412 170.91618 L 58.22741 167.84178 L 58.8013 165.6282 C 59.703125 162.0619 61.3838 157.47079 62.490585 155.54416 C 63.02348 154.56035 63.35142 153.45356 63.22844 153.12563 C 62.695545 151.6909 72.36967 144.31234 77.41169 142.30372 C 78.64146 141.85281 80.07618 141.11496 80.60907 140.66404 C 81.14197 140.25412 83.02761 139.43428 84.79026 138.8194 C 86.55292 138.24551 88.35657 137.38468 88.76649 136.93377 C 89.17641 136.48285 91.18503 135.08912 93.23463 133.85936 C 98.48161 130.66198 102.99074 127.50559 106.55705 124.51317 C 108.23772 123.07845 110.57427 121.35678 111.68106 120.70091 C 112.82883 120.04504 114.14058 118.85627 114.67348 118.07742 C 115.73927 116.51972 119.1826 112.54349 122.42097 109.18214 C 123.56875 107.95238 124.63455 106.47667 124.79851 105.86178 C 125.12645 104.34508 126.52018 102.13151 127.17605 102.13151 C 127.463 102.13151 127.91391 101.6396 128.20085 100.98373 C 129.5126 98.11429 130.82435 96.43361 132.17708 95.9827 C 132.91494 95.73675 133.77577 95.24484 134.06272 94.9169 C 134.34966 94.58897 135.86637 93.52317 137.46506 92.62135 C 139.06375 91.67853 140.8674 90.40778 141.48228 89.83389 C 142.05617 89.21901 143.4499 88.39917 144.55669 87.98925 C 145.62248 87.57933 147.5491 86.71849 148.77887 86.10361 C 150.29557 85.32476 152.55014 84.66889 155.74752 84.13599 C 160.29764 83.39814 168.04514 83.15218 168.04514 83.76706 Z" fill="#FFFFFF"/>
        </g>
        <g id="Graphic_1116">
          <path d="M 201.90458 86.34956 C 206.78263 87.12841 213.38235 89.71091 216.2928 91.96548 C 219.65414 94.54798 226.6228 102.04952 229.73818 106.43567 C 231.2549 108.56726 232.60763 110.32992 232.7716 110.32992 C 232.93557 110.32992 234.61624 111.80563 236.54287 113.56829 C 241.4619 118.11841 252.8987 125.12805 257.12088 126.11186 C 258.76056 126.52178 261.54802 127.4236 263.35167 128.20246 C 265.15532 128.94031 268.3117 130.17008 270.32032 130.94892 C 276.5921 133.36746 282.94588 136.15492 284.58556 137.22071 C 286.79913 138.69642 293.43984 145.41912 295.2025 148.04261 C 296.06334 149.27237 297.2931 151.03503 297.94897 151.93686 C 298.60484 152.83868 299.7936 154.92928 300.65445 156.56896 C 302.0072 159.27444 302.13016 159.80733 302.08917 162.71777 C 302.04818 164.43944 302.13016 166.36606 302.29413 166.93995 C 302.62207 168.16971 300.77742 172.18694 298.72782 174.76944 C 297.00615 176.94201 286.5122 182.10701 281.38818 183.29578 C 279.37957 183.7467 276.01822 184.68951 273.92762 185.34539 C 269.9924 186.61614 267.8608 186.90308 265.7702 186.37019 C 264.62243 186.12424 264.45846 186.20622 264.2125 187.10805 C 264.00755 187.92789 263.51564 188.29681 261.83497 188.78872 C 260.6872 189.11666 259.5804 189.32162 259.41644 189.23963 C 259.29346 189.11666 258.67858 187.47697 258.0637 185.55035 C 257.24386 182.92686 256.506 181.49213 255.0303 179.68848 C 252.73473 176.86003 251.66894 174.89241 251.66894 173.3757 C 251.66894 172.59686 251.13604 171.73602 250.02925 170.62924 C 249.12743 169.72741 248.38957 168.7436 248.38957 168.37467 C 248.38957 167.59583 246.01203 164.84936 245.35616 164.84936 C 245.06921 164.84936 243.79846 164.19348 242.48672 163.41464 C 241.17497 162.63579 239.86322 161.97991 239.61727 161.97991 C 239.37132 161.97991 238.18255 161.32404 237.03477 160.58618 L 234.8622 159.23345 L 232.32068 159.80733 C 230.06612 160.34023 229.2053 160.66817 227.0737 161.93892 C 226.74576 162.14388 225.18807 162.79975 223.67136 163.41464 C 219.69513 165.01333 219.69513 165.05432 218.46537 154.8063 C 217.7685 148.94444 217.35858 148.0836 214.36616 146.034 C 211.41473 144.02539 204.97898 140.74603 201.86358 139.63924 C 200.7568 139.27031 199.36307 138.69642 198.78918 138.40948 C 198.2153 138.12253 195.5508 137.67162 192.84533 137.46666 C 190.13986 137.22071 187.39339 136.85178 186.7785 136.60583 C 185.09783 135.94996 182.6383 136.07293 180.95763 136.85178 C 179.15398 137.71261 178.78506 137.34369 179.5639 135.41706 C 180.01482 134.1873 180.1378 130.74396 180.17879 117.50353 C 180.21978 99.91794 180.54771 96.35163 182.39236 93.85111 C 182.84327 93.23623 183.2122 92.3754 183.2122 91.96548 C 183.2122 90.8177 188.4182 86.51353 190.3858 86.02163 C 192.14847 85.61171 198.33827 85.77568 201.90458 86.34956 Z" fill="#FFFFFF"/>
        </g>
        <g id="Graphic_1115">
          <path d="M 222.9745 89.62893 C 224.32723 90.20282 226.41783 90.94068 227.6476 91.22762 C 228.83636 91.55556 230.55803 92.17044 231.41886 92.62135 C 232.32068 93.03127 233.7554 93.64615 234.65723 93.9331 C 236.70683 94.58897 240.0272 96.22865 241.62588 97.41742 C 242.32275 97.90933 243.5935 98.52421 244.49533 98.77016 C 246.42195 99.34405 250.56215 101.96754 252.24283 103.6892 L 253.3906 104.91897 L 251.75092 106.43567 C 250.64413 107.37849 249.45537 109.26413 248.2256 111.76464 C 247.2008 113.85524 246.176 115.69988 245.97104 115.82285 C 245.76608 115.94583 245.35616 115.78186 245.06921 115.41293 C 244.78227 115.044 243.71648 114.18317 242.69168 113.48631 C 239.9862 111.68266 233.01755 105.20591 231.58283 103.1973 C 230.92695 102.29548 229.82017 100.57381 229.1233 99.42603 C 228.46743 98.27825 226.6228 96.10567 225.0651 94.62996 C 222.85152 92.45738 221.9497 91.88349 221.00688 91.88349 C 220.31 91.88349 219.65414 91.71952 219.53116 91.51456 C 219.3262 91.22762 220.10505 88.60413 220.392 88.60413 C 220.47398 88.60413 221.62176 89.05504 222.9745 89.62893 Z" fill="#FFFFFF"/>
        </g>
        <g id="Graphic_1114">
          <path d="M 129.92252 94.425 C 129.92252 94.67095 128.69276 96.18766 127.21705 97.78635 C 125.74133 99.38504 123.89669 101.35266 123.15883 102.13151 C 122.42097 102.91036 121.2732 104.42706 120.57633 105.45186 C 119.87947 106.47667 118.6907 107.8704 117.95284 108.52627 C 117.21498 109.18214 116.0672 110.53488 115.41133 111.4777 C 113.85363 113.73226 112.04998 115.28996 111.27113 115.00301 C 110.57427 114.71607 105.73721 107.54246 105.73721 106.8046 C 105.73721 106.3127 113.44371 101.6396 115.12439 101.1067 C 115.65728 100.94274 116.76407 100.20488 117.58391 99.46702 C 118.97764 98.23726 124.26562 95.61377 125.49538 95.57278 C 125.78232 95.53179 126.68415 95.20385 127.463 94.75294 C 129.14367 93.85111 129.92252 93.72814 129.92252 94.425 Z" fill="#FFFFFF"/>
        </g>
        <g id="Graphic_1113">
          <path d="M 257.6128 107.09155 C 258.71957 108.11635 259.45743 109.14115 259.45743 109.67405 C 259.45743 110.73984 255.9321 116.19178 254.21044 117.87246 C 252.57076 119.43016 251.09505 119.38916 249.49636 117.79047 L 248.2256 116.51972 L 249.2094 114.42912 C 249.7423 113.28135 250.39818 112.17456 250.68513 111.92861 C 250.97207 111.68266 251.341 110.98579 251.46398 110.32992 C 251.58695 109.67405 251.99687 108.93619 252.3248 108.64924 C 252.65275 108.3623 253.18564 107.54246 253.51358 106.76361 C 254.29243 104.91897 255.35822 105.00095 257.6128 107.09155 Z" fill="#FFFFFF"/>
        </g>
        <g id="Graphic_1112">
          <path d="M 105.40927 110.78083 C 106.72102 112.13357 108.23772 114.0602 108.8526 115.044 C 109.79542 116.72468 109.83641 116.92964 109.30352 117.99543 C 108.93459 118.61031 108.19673 119.59412 107.62284 120.12702 L 106.55705 121.11083 L 105.49125 120.12702 C 104.91737 119.59412 103.97455 118.32337 103.44165 117.29857 C 102.86776 116.27377 101.80197 114.67508 101.02312 113.69127 C 100.24427 112.70746 99.5884 111.55968 99.5884 111.14976 C 99.5884 110.4119 101.84296 108.28032 102.6628 108.28032 C 102.86776 108.28032 104.09752 109.3871 105.40927 110.78083 Z" fill="#FFFFFF"/>
        </g>
        <g id="Graphic_1111">
          <path d="M 266.50806 114.14218 C 269.04957 116.47873 272.82084 120.12702 274.82945 122.25861 C 276.87905 124.43119 279.1336 126.60377 279.87147 127.13666 C 281.01925 127.9975 283.64274 131.80976 283.64274 132.6296 C 283.64274 133.40845 281.3062 132.5886 276.34616 130.0471 C 270.77124 127.21865 262.61382 123.8573 261.30207 123.8573 C 259.99032 123.8573 255.3992 121.39777 255.15326 120.53694 C 254.9073 119.75809 255.64517 118.52833 258.5556 114.83905 C 259.0475 114.22416 259.45743 113.5273 259.45743 113.28135 C 259.45743 113.07639 259.74437 112.66647 260.0723 112.37952 C 260.40024 112.09258 260.6872 111.4367 260.6872 110.90381 C 260.6872 110.32992 260.93314 109.92 261.26108 109.92 C 261.589 109.92 263.96655 111.80563 266.50806 114.14218 Z" fill="#FFFFFF"/>
        </g>
        <g id="Graphic_1110">
          <path d="M 100.1213 115.044 C 103.03173 119.55313 103.76959 121.02885 103.48264 121.93067 C 103.23669 122.7915 100.03931 125.78393 96.30903 128.57139 C 93.19364 130.94892 90.40618 132.46563 89.17641 132.46563 C 88.35657 132.46563 87.53673 132.95754 86.42995 134.10531 C 85.56911 135.00714 84.33935 135.86797 83.72447 135.99095 C 83.0686 136.15492 82.08479 136.60583 81.46991 137.01575 C 80.89602 137.46666 80.24015 137.7946 80.03519 137.7946 C 78.76443 137.7946 76.427885 138.8604 74.99316 140.04916 C 74.050345 140.82801 72.82058 141.48388 72.28769 141.48388 C 71.1809 141.48388 71.01693 140.99198 71.87777 140.25412 C 72.2057 140.00817 72.69761 139.18833 72.94356 138.45047 C 73.18951 137.63063 74.2963 136.31888 75.813 135.08912 C 77.16574 133.98234 78.47749 132.54761 78.76443 131.89174 C 80.24015 128.32543 87.61872 120.08603 95.12026 113.65028 C 98.0307 111.14976 97.4978 111.02678 100.1213 115.044 Z" fill="#FFFFFF"/>
        </g>
        <g id="Graphic_1109">
          <path d="M 177.06339 141.15595 C 177.06339 144.10738 176.4895 147.22277 175.91561 147.22277 C 175.75164 147.22277 174.80883 147.01781 173.82502 146.77186 C 172.80021 146.5669 168.66002 146.11599 164.6428 145.78805 C 155.3376 145.0502 154.64073 144.55829 159.64176 142.26273 C 161.0355 141.64785 162.30625 140.869 162.42922 140.54107 C 162.5932 140.09015 163.69998 139.8852 166.48744 139.72123 C 168.57803 139.59825 171.69343 139.22932 173.3741 138.90138 C 175.05478 138.57345 176.57148 138.2865 176.77644 138.24551 C 176.94041 138.24551 177.06339 139.55726 177.06339 141.15595 Z" fill="#FFFFFF"/>
        </g>
        <g id="Graphic_1108">
          <path d="M 181.40855 139.39329 C 182.51533 140.04916 182.7203 140.50007 183.13021 142.9186 C 183.41716 144.76325 183.45815 145.95202 183.1712 146.44392 C 182.31037 148.0836 177.43232 147.75567 178.0882 146.075 C 178.25216 145.70607 178.5391 144.02539 178.74406 142.38571 C 179.19498 138.24551 179.31795 138.12253 181.40855 139.39329 Z" fill="#FFFFFF"/>
        </g>
        <g id="Graphic_1107">
          <path d="M 193.9931 140.869 C 196.6576 141.23793 199.56803 141.81182 200.51085 142.13976 C 201.41267 142.4267 202.60144 142.71365 203.13434 142.71365 C 204.3231 142.71365 204.44608 143.73845 203.3393 144.31234 C 202.92938 144.55829 200.38787 145.0092 197.72339 145.37813 C 195.0179 145.70607 191.73855 146.23896 190.34482 146.48491 C 186.36859 147.22277 185.87668 146.93583 185.34378 143.65646 C 184.7699 140.21313 185.09783 139.63924 187.51636 140.00817 C 188.4182 140.13115 191.32863 140.54107 193.9931 140.869 Z" fill="#FFFFFF"/>
        </g>
        <g id="Graphic_1106">
          <path d="M 211.25077 148.78047 C 212.97243 149.72329 213.42335 150.25618 214.24319 152.14182 C 215.43196 155.05226 215.47295 157.67575 214.36616 158.37261 C 213.38235 158.9875 213.30037 159.52039 214.1612 159.52039 C 215.145 159.52039 215.7599 161.07809 215.227 162.26686 C 214.98104 162.84075 214.85807 163.90654 215.02204 164.68539 C 215.34997 166.40706 214.07922 168.70261 210.5949 172.76082 C 209.16017 174.4005 208.21735 175.91721 208.21735 176.4911 C 208.21735 177.39293 206.4137 180.0984 200.63382 188.00987 C 197.6414 192.06808 196.94454 193.17487 196.32966 194.93753 C 195.96073 195.92134 195.75577 196.04431 194.81295 195.79836 C 193.95212 195.5934 193.5422 195.75737 192.80434 196.70019 L 191.86152 197.84796 L 190.59077 196.45423 C 189.64795 195.42943 189.19704 195.18348 188.8281 195.5524 C 188.58216 195.79836 188.17224 196.00332 187.8853 196.00332 C 187.22942 196.00332 187.3524 186.69812 188.04926 185.46836 C 188.66414 184.36158 188.70513 181.82007 188.09025 181.45114 C 187.8443 181.28717 187.59835 181.24618 187.47537 181.32816 C 187.39339 181.45114 187.02446 183.7057 186.65553 186.37019 C 186.04065 191.28924 185.13882 193.9947 184.40097 193.25685 C 184.15502 193.0109 183.7451 190.30543 183.45815 187.23102 C 182.96625 182.10701 182.47434 180.22138 181.73648 180.95924 C 181.24458 181.41015 180.79367 184.97646 180.79367 188.29681 C 180.75267 190.01848 180.54771 191.9451 180.34275 192.519 C 179.93283 193.5848 179.89184 193.62578 178.86704 192.92892 C 178.0472 192.39602 177.71926 192.35503 177.22736 192.72396 C 176.94041 193.0109 176.36652 193.09289 175.9976 192.9699 C 175.62867 192.80594 174.84982 193.13388 174.11196 193.74876 C 173.21014 194.48662 172.43129 194.77356 171.07855 194.77356 C 168.98795 194.77356 168.53704 194.40463 166.03653 190.75634 C 165.1347 189.3626 164.19188 188.13285 163.94593 188.00987 C 163.69998 187.8459 163.16708 187.02606 162.71617 186.16523 C 162.30625 185.3044 160.91252 183.2138 159.72375 181.53313 C 158.49399 179.85245 156.52637 176.57309 155.3376 174.27753 C 154.18982 171.98198 152.79609 169.48146 152.2222 168.66162 C 151.6893 167.88277 151.1564 166.57102 150.99244 165.7102 C 150.86946 164.89035 150.50053 163.41464 150.1726 162.38983 C 149.6807 160.79114 149.6807 160.25825 150.21359 158.53658 C 150.54153 157.4298 150.82847 156.11805 150.82847 155.66714 C 150.82847 153.61753 151.6893 151.77289 153.00105 150.95305 C 155.13264 149.6413 159.02688 148.41154 161.89633 148.16559 C 164.1099 148.00162 165.42164 148.16559 169.47986 149.27237 C 174.35791 150.58412 174.48089 150.62511 180.95763 150.37916 C 187.92628 150.09222 193.29624 149.51833 195.30486 148.82146 C 197.06751 148.16559 200.87978 147.75567 205.3479 147.71468 C 208.87323 147.67368 209.44712 147.75567 211.25077 148.78047 Z" fill="#FFFFFF"/>
        </g>
        <g id="Graphic_1105">
          <path d="M 141.68724 165.05432 C 144.35173 165.87416 147.91804 168.7846 149.84466 171.73602 C 151.7303 174.60547 154.18982 178.49971 156.03446 181.41015 C 156.73133 182.55793 158.57597 184.97646 160.13367 186.7801 C 162.92113 189.9775 165.99553 194.85554 165.99553 196.04431 C 165.99553 196.37225 165.25768 197.643 164.31486 198.87277 C 163.41303 200.10253 162.30625 201.7832 161.85534 202.64404 L 161.07649 204.16074 L 158.33002 203.01296 C 154.72272 201.49626 153.16502 201.12733 153.36998 201.8242 C 153.57494 202.43908 156.56736 204.65265 158.73994 205.84142 C 160.29764 206.70225 160.58458 207.56308 159.31383 207.80903 C 158.9449 207.89102 156.73133 207.19415 154.43577 206.29233 C 146.15538 203.09495 139.67863 200.92237 138.40788 200.92237 C 137.13712 200.96336 137.13712 200.96336 137.91597 201.57824 C 138.94077 202.3571 145.0076 205.3495 147.75407 206.37431 C 148.90184 206.78423 151.27938 207.68606 153.04204 208.30094 C 156.69034 209.61269 157.79712 210.35054 157.79712 211.5803 C 157.79712 212.72808 157.01827 212.6051 153.90288 210.96542 C 151.40236 209.61269 151.11542 209.5717 150.29557 210.14558 C 149.80367 210.47352 148.81986 210.76046 148.082 210.76046 C 146.64728 210.76046 145.95042 211.33435 146.97522 211.74427 C 147.34415 211.86725 148.5739 211.99022 149.6807 211.99022 C 150.82847 211.99022 152.96006 212.19519 154.39478 212.44114 C 157.71514 213.01503 158.20704 213.75288 157.3872 217.07324 C 156.93629 218.91788 156.93629 219.77872 157.3872 221.82832 C 157.67415 223.18106 157.79712 224.41082 157.67415 224.5338 C 157.55117 224.65677 155.54256 225.0667 153.20601 225.39463 C 150.86946 225.72256 147.38514 226.5424 145.41752 227.19828 C 140.53946 228.79697 132.66899 230.1907 131.6032 229.6578 C 130.94732 229.28887 130.66038 229.45284 129.75855 230.6416 C 128.4468 232.3223 126.72514 232.89618 122.70792 232.89618 C 116.1082 232.89618 109.01657 229.90375 107.17193 226.33745 C 105.65522 223.34503 106.47506 217.56514 109.22153 211.78526 C 110.00038 210.18657 111.35312 207.27614 112.29594 205.22654 C 113.19776 203.21792 114.30455 201.16832 114.75546 200.7174 C 115.98522 199.44665 116.68209 197.27408 117.01002 194.15868 C 117.17399 192.56 117.46094 190.67435 117.70689 189.8955 C 117.95284 189.11666 118.19879 186.73912 118.23978 184.56654 C 118.32177 179.97543 119.01863 177.59789 122.33899 170.71122 C 124.63455 165.87416 125.49538 164.97233 128.20085 164.39844 C 130.37343 163.90654 139.39169 164.35745 141.68724 165.05432 Z" fill="#FFFFFF"/>
        </g>
        <g id="Graphic_1104">
          <path d="M 244.00342 169.2355 C 245.06921 170.3013 246.58592 172.10495 247.40576 173.25273 C 249.57834 176.32713 253.71854 183.41876 253.71854 184.11562 C 253.71854 184.7715 246.217 187.64094 245.56112 187.19003 C 244.94624 186.8211 243.92144 183.33678 243.47052 180.01642 C 242.81465 175.34332 241.74886 171.77702 240.5191 170.17832 C 239.24834 168.53864 238.4285 166.57102 238.75644 166.03813 C 239.16636 165.42325 241.95382 167.14491 244.00342 169.2355 Z" fill="#FFFFFF"/>
        </g>
        <g id="Graphic_1103">
          <path d="M 233.14053 166.98094 C 235.23112 167.63682 236.62485 169.03055 238.01858 172.06396 C 238.9204 174.03158 239.4123 175.9992 239.74025 178.5817 C 240.23215 182.88586 243.51152 192.0271 245.7251 195.42943 C 246.54493 196.6182 248.63552 198.7088 250.56215 200.2255 C 253.71854 202.767 255.76814 205.30852 255.76814 206.74324 C 255.76814 207.07118 256.30104 207.85003 256.9569 208.4649 C 258.43263 209.85864 258.84255 212.19519 258.43263 216.7863 L 258.14568 219.98368 L 254.9073 223.18106 C 251.21802 226.82935 249.08644 227.97713 243.88045 229.00193 C 240.60108 229.6578 240.23215 229.6578 237.11676 229.00193 C 231.37787 227.77217 222.81053 225.4766 221.08886 224.69776 C 219.94108 224.20586 218.8753 224.0419 217.60454 224.16487 C 216.37477 224.28784 214.77608 224.08288 212.72648 223.468 C 210.34894 222.77114 209.07819 222.60717 207.11057 222.77114 C 204.07716 223.05808 203.70823 222.68915 203.70823 219.45078 C 203.70823 217.56514 203.7902 217.44217 205.06097 216.99126 C 211.70168 214.7367 214.03823 213.7119 213.7103 213.138 C 213.38235 212.6051 210.34894 213.179 208.5043 214.1218 C 207.27454 214.7367 206.78263 214.81868 206.33172 214.40876 C 206.00378 214.1628 205.75783 213.75288 205.75783 213.50693 C 205.75783 213.26098 205.47089 212.72808 205.06097 212.31816 C 204.3231 211.49832 204.81501 211.37534 206.29073 212.03122 C 207.11057 212.40015 207.88942 212.1542 211.66069 210.39153 C 214.07922 209.24376 216.37477 208.30094 216.7847 208.30094 C 217.19461 208.30094 218.38338 208.014 219.44918 207.64507 C 220.76092 207.19415 222.07267 207.03019 223.4254 207.19415 C 225.0241 207.39911 225.516 207.31713 225.72096 206.82523 C 226.0489 205.9644 225.10608 205.02157 223.87632 205.02157 C 222.4826 205.02157 211.5787 208.05499 208.29934 209.36673 C 204.56906 210.84245 202.56045 210.26856 204.48708 208.34193 C 205.10196 207.72705 205.8808 207.4811 207.31553 207.4811 C 208.5453 207.4811 209.69307 207.19415 210.47192 206.66126 C 211.41473 206.04638 211.5377 205.84142 210.96382 205.84142 C 209.5701 205.84142 210.5129 204.81661 213.79227 202.849 C 217.19461 200.7994 217.8505 200.10253 216.45676 200.10253 C 214.7351 200.10253 212.1526 201.53725 207.39751 205.06257 C 205.83981 206.21034 203.66724 207.07118 202.3145 207.07118 C 201.04374 207.03019 195.50982 200.92237 195.50982 199.52864 C 195.50982 198.46285 195.67378 198.25789 198.50224 195.96233 C 199.32208 195.26546 200.01894 194.44562 200.01894 194.11769 C 200.01894 193.83074 200.2649 193.42082 200.55184 193.25685 C 200.87978 193.09289 201.45366 192.35503 201.90458 191.69916 C 202.3145 191.0023 204.07716 189.07566 205.75783 187.395 C 207.56148 185.59134 209.28315 183.45975 209.85704 182.27098 C 213.54632 174.56448 220.8839 167.63682 226.66378 166.44805 C 228.26247 166.12011 231.13191 166.36606 233.14053 166.98094 Z" fill="#FFFFFF"/>
        </g>
        <g id="Graphic_1102">
          <path d="M 314.8787 167.51384 C 320.37163 168.41567 322.95413 168.94856 323.1591 169.3175 C 324.1429 170.8752 314.2638 183.7057 312.05024 183.7057 C 311.84528 183.7057 310.49254 182.88586 309.05782 181.86106 C 307.6231 180.87725 305.6145 179.72947 304.5897 179.36055 C 301.22834 178.0898 301.14635 177.80285 303.81084 175.38432 C 305.9834 173.4167 306.22937 173.04777 306.80326 170.38329 C 307.1722 168.82559 307.5821 167.39086 307.6641 167.2269 C 307.99203 166.735 310.6975 166.81698 314.8787 167.51384 Z" fill="#FFFFFF"/>
        </g>
        <g id="Graphic_1101">
          <path d="M 56.505744 172.67884 C 57.489553 174.52348 58.924275 176.73705 59.703125 177.59789 C 60.481974 178.45872 61.05586 179.44253 60.93289 179.77047 C 60.80991 180.0984 59.74412 180.6723 58.55535 181.04122 C 54.907054 182.27098 52.03761 183.7057 51.5867 184.60753 C 51.135784 185.42737 51.01281 185.34539 48.799237 183.04983 C 47.528483 181.6971 46.011777 179.93443 45.396896 179.1146 C 44.782015 178.33574 43.71622 177.14697 43.019357 176.4911 C 39.53503 173.25273 40.68281 172.02297 47.938404 171.20313 C 49.168165 171.03916 51.01281 170.58825 52.03761 170.17832 C 53.06241 169.7684 54.08721 169.44047 54.29217 169.39948 C 54.538125 169.39948 55.521935 170.8752 56.505744 172.67884 Z" fill="#FFFFFF"/>
        </g>
        <g id="Graphic_1100">
          <path d="M 116.6001 173.17075 C 117.17399 174.03158 117.09201 174.4005 115.98522 177.59789 C 115.16538 179.93443 114.75546 181.82007 114.75546 183.54174 C 114.75546 186.94408 114.38653 188.54277 113.56669 188.82971 C 113.19776 188.95269 111.59907 188.70674 110.04137 188.29681 C 105.90117 187.27201 105.86018 186.16523 109.8774 181.00023 C 111.23014 179.23757 112.82883 176.81904 113.40272 175.71225 C 114.34554 173.8676 115.49332 172.22793 115.82125 172.22793 C 115.90324 172.22793 116.23117 172.63785 116.6001 173.17075 Z" fill="#FFFFFF"/>
        </g>
        <g id="Graphic_1099">
          <path d="M 305.28655 183.33678 C 310.7385 186.04225 312.2962 190.01848 312.3372 201.04535 C 312.3372 205.10356 312.2552 205.55447 311.43536 206.37431 C 310.90246 206.9072 310.45155 207.80903 310.45155 208.42392 C 310.36956 209.4897 308.197 214.32677 301.8842 227.36225 C 298.60484 234.08494 298.52286 234.2899 297.98996 237.48729 C 297.826 238.71705 297.17012 240.4387 296.59623 241.29955 C 296.02234 242.16038 295.53044 243.1442 295.53044 243.51312 C 295.53044 243.92304 295.32548 244.41494 295.07953 244.6609 C 294.83357 244.90685 294.46465 246.2596 294.30068 247.6943 C 294.0957 249.12903 293.7268 251.3426 293.43984 252.57236 C 293.1939 253.80213 292.94794 255.72875 292.90695 256.87653 C 292.78397 259.82796 292.78397 259.82796 291.43123 259.623 C 289.95552 259.41804 289.34064 260.48383 290.36544 261.50863 C 290.98032 262.1235 291.0623 262.1235 291.5952 261.38566 C 292.00512 260.81177 292.33306 260.6888 292.661 261.01673 C 292.94794 261.30367 292.90695 262.36947 292.45603 264.706 C 292.00512 267.16554 291.96413 268.27232 292.29207 269.29712 C 292.53802 270.03498 292.62 271.5107 292.49703 272.5765 C 292.41504 273.64228 292.1691 275.6509 292.00512 277.04462 C 291.88215 278.47934 291.51322 279.7911 291.22627 280.03704 C 290.81635 280.36498 290.81635 280.8159 291.1443 281.8817 C 291.47223 283.02946 291.39024 283.8493 290.69338 286.26784 C 290.20147 287.90752 289.79155 289.79315 289.79155 290.44903 C 289.79155 291.1049 289.34064 292.2117 288.84873 292.90855 C 288.31584 293.6054 287.0041 295.85998 285.9383 297.90958 C 283.23282 303.19756 278.1498 308.23958 272.4929 311.273 C 270.03338 312.58474 266.46707 312.8717 265.60624 311.8059 C 265.11433 311.232 264.99136 311.232 264.33548 311.84688 C 263.6796 312.46176 263.2697 312.46176 261.01513 312.01085 C 256.87493 311.232 255.9731 310.6991 254.33342 308.03462 C 253.4726 306.72287 251.75092 304.4683 250.48017 302.9926 C 249.16842 301.51688 247.6927 299.67224 247.11882 298.8934 C 246.58592 298.11454 245.1922 296.35188 244.0444 294.99914 C 242.89664 293.6464 241.21596 291.39184 240.23215 289.9981 C 239.28933 288.5634 237.3627 286.4728 235.96898 285.28403 C 234.57525 284.13625 233.46846 282.98847 233.55045 282.74252 C 233.8374 281.8407 235.51807 280.324 237.19874 279.54514 C 238.75644 278.80728 239.65826 277.82347 242.89664 273.43732 C 243.30656 272.82244 244.98723 270.60887 246.58592 268.51827 C 248.1846 266.3867 250.48017 262.82038 251.66894 260.5658 C 252.8577 258.31125 254.29243 255.76974 254.86632 254.9089 C 255.80913 253.51518 255.85013 253.10526 255.60417 250.52276 C 255.4812 248.96506 255.15326 247.2024 254.9483 246.62851 C 254.70235 246.05463 254.53838 244.86586 254.53838 244.00502 C 254.53838 242.48832 253.14465 240.0288 251.54596 238.67606 C 251.17703 238.3891 250.8491 237.8972 250.8491 237.65125 C 250.8491 237.4053 250.2752 236.46248 249.61933 235.60165 C 248.92247 234.69983 248.38957 233.839 248.38957 233.71602 C 248.38957 233.3471 253.10366 230.43665 253.71854 230.43665 C 254.66136 230.43665 259.17048 225.68157 260.72818 223.05808 C 261.589 221.58237 262.6548 219.8197 263.1467 219.16384 C 263.88457 218.09804 263.96655 217.52415 263.7616 214.44975 C 263.63862 212.52312 263.2697 209.94062 262.94175 208.71086 C 262.6548 207.4811 262.1629 204.77562 261.91695 202.767 C 261.50703 199.56963 261.01513 196.70019 259.99032 191.69916 C 259.78536 190.59237 259.82636 190.55138 260.40024 191.0023 C 260.93314 191.4532 261.671 191.4532 264.2535 191.08427 C 266.01616 190.83832 268.27072 190.4284 269.29552 190.18245 C 270.32032 189.9365 272.16497 189.56757 273.39473 189.3626 C 274.6245 189.15765 277.207 188.46078 279.1336 187.8049 C 281.06024 187.14904 283.2738 186.49316 284.05266 186.3292 C 284.8315 186.20622 286.79913 185.38638 288.35683 184.60753 C 291.92314 182.80388 294.7106 182.148 299.2607 182.10701 C 302.4171 182.06602 303.032 182.189 305.28655 183.33678 Z" fill="#FFFFFF"/>
        </g>
        <g id="Graphic_1098">
          <path d="M 67.53261 183.95166 C 69.04931 184.32059 71.67281 184.97646 73.35348 185.38638 C 80.4861 187.19003 98.93252 191.08427 100.24427 191.08427 C 101.76098 191.08427 101.88395 192.15007 100.6132 193.95372 C 99.17848 196.04431 98.35864 199.44665 98.35864 203.50487 C 98.35864 205.26753 98.15368 208.91582 97.90772 211.6213 L 97.45681 216.49935 L 98.72756 219.20483 C 99.42443 220.72153 99.99832 222.11526 99.99832 222.4022 C 99.99832 222.81213 101.638 226.21447 103.31868 229.32987 C 103.81058 230.2317 105.45026 231.29748 110.24633 233.757 C 113.73066 235.56066 116.72308 237.15935 116.88705 237.32332 C 117.05101 237.48729 116.14919 239.70086 114.87844 242.24236 C 112.62387 246.6695 112.54189 246.95645 112.4599 250.23582 C 112.4599 252.08046 112.37792 253.76113 112.29594 254.0071 C 112.21395 254.21205 112.25494 254.70395 112.37792 255.0319 C 112.5009 255.35982 112.82883 256.4666 113.11578 257.4914 C 114.0176 260.89375 118.81367 269.4201 121.15022 271.83863 C 126.11026 276.92165 129.84054 281.18482 130.5374 282.45557 L 131.23427 283.8493 L 125.94629 289.0963 C 117.95284 297.13073 113.93562 301.8448 112.21395 305.45212 C 110.4513 309.05942 107.45887 311.60093 104.99935 311.60093 C 104.58943 311.60093 103.56463 311.96986 102.6628 312.42077 C 100.0803 313.7325 98.68657 313.8145 95.81713 312.8717 C 91.06205 311.273 81.96181 304.09938 81.26495 301.3529 C 81.14197 300.77902 80.28114 299.71323 79.37931 298.93438 C 77.24773 297.04875 76.632845 295.49105 76.91979 292.6626 C 77.08376 291.1869 76.91979 289.34224 76.46888 287.5386 C 75.60804 283.8903 74.17332 274.25716 74.17332 272.0436 C 74.17332 271.10077 73.72241 268.80522 73.14852 266.91958 C 72.57463 264.99296 71.63181 260.97574 71.057925 257.90133 C 69.869155 251.58855 69.09031 248.59613 67.98352 246.1366 C 67.5736 245.1938 67.20467 244.25098 67.20467 244.04602 C 67.20467 243.84105 66.83574 243.18518 66.38483 242.6113 C 65.93392 242.0374 64.37622 239.24994 62.9415 236.4215 C 61.46578 233.59304 59.908085 230.7646 59.45717 230.1907 C 58.96527 229.57582 58.59634 228.87895 58.59634 228.592 C 58.59634 228.30506 57.735506 226.87034 56.66971 225.39463 C 53.554316 221.09046 53.06241 220.14764 51.955625 216.49935 C 49.947015 210.0636 49.41412 207.31713 49.25015 202.767 C 49.04519 195.92134 49.332134 194.44562 51.5867 191.0023 C 53.349355 188.29681 53.84126 187.8459 56.66971 186.37019 C 58.39138 185.46836 59.8261 184.64852 59.8261 184.48455 C 59.8261 183.99265 61.711735 183.33678 63.22844 183.33678 C 64.089275 183.29578 66.05689 183.58273 67.53261 183.95166 Z" fill="#FFFFFF"/>
        </g>
        <g id="Graphic_1097">
          <path d="M 255.5222 187.47697 C 255.89112 187.96888 256.17806 188.62475 256.17806 188.95269 C 256.17806 189.64955 251.58695 191.78114 249.41437 192.15007 C 247.52874 192.43701 246.91386 191.9861 246.50394 189.9775 C 246.25798 188.78872 246.29898 188.74773 249.2914 187.72293 C 253.14465 186.3292 254.70235 186.2882 255.5222 187.47697 Z" fill="#FFFFFF"/>
        </g>
        <g id="Graphic_1096">
          <path d="M 110.9022 189.9775 C 113.44371 190.79733 113.73066 191.0023 113.85363 192.0271 C 113.93562 192.68297 113.68967 193.66677 113.32074 194.19967 C 112.70586 195.18348 112.5009 195.22447 110.32832 194.97852 C 107.99177 194.69158 104.83538 193.5438 104.38447 192.84693 C 104.26149 192.64197 104.42546 191.61717 104.79439 190.51039 C 105.40927 188.62475 105.49125 188.58376 106.76201 188.78872 C 107.49987 188.95269 109.3855 189.4446 110.9022 189.9775 Z" fill="#FFFFFF"/>
        </g>
        <g id="Graphic_1095">
          <path d="M 257.40782 195.30646 C 257.40782 196.70019 257.69477 198.95475 258.0227 200.2255 C 258.76056 203.13594 258.80155 202.97197 257.89973 202.97197 C 256.79294 202.97197 250.8491 196.5772 250.8491 195.38844 C 250.8491 194.69158 254.74334 192.80594 256.30104 192.76495 C 257.40782 192.72396 257.40782 192.76495 257.40782 195.30646 Z" fill="#FFFFFF"/>
        </g>
        <g id="Graphic_1094">
          <path d="M 109.18054 196.82316 C 109.42649 197.06912 110.12336 197.23308 110.73824 197.23308 C 111.39411 197.23308 112.00899 197.47904 112.13197 197.76598 C 112.21395 198.05292 111.02518 201.00435 109.42649 204.28372 C 107.8688 207.60407 106.55705 210.5965 106.55705 210.96542 C 106.55705 212.40015 104.38447 218.63094 103.81058 218.8359 C 102.08891 219.49177 101.1461 215.6795 101.18709 208.13697 C 101.26907 202.23411 101.55602 201.20931 103.07272 201.57824 C 104.30248 201.90618 104.34348 201.61923 103.23669 200.06154 C 102.37586 198.87277 102.45784 197.684 103.40066 196.45423 C 103.93356 195.83935 108.48367 196.1263 109.18054 196.82316 Z" fill="#FFFFFF"/>
        </g>
        <g id="Graphic_1093">
          <path d="M 188.58216 198.46285 C 189.15605 198.79078 189.361 199.32368 189.361 200.63542 C 189.361 201.57824 189.19704 202.64404 188.95109 202.97197 C 188.62315 203.46388 188.50017 203.46388 187.8443 202.89 C 187.43438 202.56205 186.69652 202.11114 186.20462 201.98816 C 184.68791 201.49626 184.97486 199.52864 186.69652 198.54483 C 187.72132 197.97094 187.59835 197.97094 188.58216 198.46285 Z" fill="#FFFFFF"/>
        </g>
        <g id="Graphic_1092">
          <path d="M 178.29315 200.47146 C 178.29315 200.96336 177.10438 201.41427 176.61248 201.08634 C 176.40752 200.96336 176.32553 200.67642 176.4485 200.47146 C 176.77644 199.97955 178.29315 199.97955 178.29315 200.47146 Z" fill="#FFFFFF"/>
        </g>
        <g id="Graphic_1091">
          <path d="M 182.6383 202.72602 C 184.52394 204.57066 185.05684 206.4563 183.82708 206.9072 C 183.13021 207.19415 180.50672 205.67745 180.17879 204.77562 C 179.76886 203.66884 179.89184 200.92237 180.38375 200.92237 C 180.6707 200.92237 181.6545 201.7422 182.6383 202.72602 Z" fill="#FFFFFF"/>
        </g>
        <g id="Graphic_1090">
          <path d="M 194.93593 205.02157 C 194.567 207.60407 193.91113 208.17796 192.5174 207.07118 C 191.20565 206.04638 191.0007 203.75082 192.06648 202.23411 L 192.68136 201.3323 L 193.91113 202.2751 C 195.0999 203.09495 195.14089 203.2999 194.93593 205.02157 Z" fill="#FFFFFF"/>
        </g>
        <g id="Graphic_1089">
          <path d="M 166.40545 203.3819 C 166.6514 203.8328 167.2253 204.20173 167.6762 204.20173 C 168.12712 204.20173 168.57803 204.48868 168.701 204.81661 C 169.06994 205.75943 169.68482 205.55447 169.68482 204.44769 C 169.68482 203.05396 170.75061 202.808 172.51327 203.8328 C 174.68585 205.14455 175.83363 206.25134 176.65347 207.932 C 177.06339 208.71086 177.71926 209.61269 178.0472 209.89963 C 178.82605 210.5555 178.86704 211.17038 178.17017 212.1542 C 177.67827 212.85106 177.4733 212.85106 176.07958 212.35915 C 174.9728 211.94923 174.64486 211.6623 174.84982 211.17038 C 175.5057 209.77665 175.5057 207.23515 174.84982 206.70225 C 174.02998 206.00538 170.13573 206.4973 169.8078 207.31713 C 169.47986 208.17796 168.29109 208.014 167.34827 206.9482 C 166.40545 205.9644 165.1757 203.66884 165.1757 202.97197 C 165.1757 202.2751 165.95454 202.52106 166.40545 203.3819 Z" fill="#FFFFFF"/>
        </g>
        <g id="Graphic_1088">
          <path d="M 198.95315 208.38292 C 199.40406 211.37534 198.7072 212.23618 196.82156 210.92443 C 196.04271 210.39153 195.91974 210.0226 196.1247 208.79284 C 196.24767 207.973 196.45263 206.62027 196.5756 205.84142 L 196.82156 204.4067 L 197.76438 205.51348 C 198.25628 206.08737 198.78918 207.39911 198.95315 208.38292 Z" fill="#FFFFFF"/>
        </g>
        <g id="Graphic_1087">
          <path d="M 179.39994 206.33332 C 179.27696 206.66126 179.15398 206.53828 179.15398 206.08737 C 179.113 205.63646 179.23597 205.3905 179.35894 205.55447 C 179.48192 205.67745 179.52291 206.04638 179.39994 206.33332 Z" fill="#FFFFFF"/>
        </g>
        <g id="Graphic_1086">
          <path d="M 188.66414 207.973 C 189.68894 209.94062 189.77093 210.43253 189.32001 211.21138 L 188.8281 212.1542 L 187.68033 210.84245 C 186.45057 209.4897 185.58974 206.9892 185.95867 206.00538 C 186.40958 204.8576 187.51636 205.63646 188.66414 207.973 Z" fill="#FFFFFF"/>
        </g>
        <g id="Graphic_1085">
          <path d="M 166.6924 209.61269 C 169.15192 211.90824 166.24149 214.03983 163.69998 211.82626 C 162.5932 210.88344 162.5522 210.84245 163.24907 209.77665 C 164.1099 208.4649 165.42164 208.38292 166.6924 209.61269 Z" fill="#FFFFFF"/>
        </g>
        <g id="Graphic_1084">
          <path d="M 183.54013 212.23618 C 184.7289 213.54792 185.67172 214.28578 185.7537 213.99884 C 186.04065 213.138 188.9101 215.7205 189.402 217.2782 L 189.8939 218.67193 L 190.50878 217.48316 C 190.9597 216.62233 191.20565 216.45836 191.32863 216.90927 C 191.4516 217.2372 192.14847 218.42598 192.92732 219.53276 C 195.0999 222.68915 195.18188 224.73876 193.17327 225.0257 C 192.0255 225.18967 190.9597 223.79594 190.67275 221.74633 C 190.4678 220.27062 190.3858 220.14764 190.18085 221.00848 C 189.85291 222.4022 188.78712 222.4842 187.51636 221.25443 C 186.8195 220.55757 186.49156 219.77872 186.49156 218.7949 C 186.49156 217.07324 185.87668 216.58134 184.89287 217.48316 C 184.48295 217.8521 183.86807 218.13903 183.49914 218.13903 C 182.55632 218.13903 182.59732 219.8197 183.62212 221.82832 C 184.7289 223.9599 184.64692 224.36983 183.33517 224.20586 C 182.43335 224.12387 181.98244 223.63197 181.1216 221.82832 C 179.85085 219.12284 178.99002 218.91788 178.70307 221.17245 L 178.49811 222.81213 L 175.83363 219.9017 C 174.35791 218.344 172.71823 216.90927 172.14434 216.7453 C 171.57045 216.62233 170.50466 215.96645 169.7668 215.31058 C 168.41406 214.1628 168.41406 214.1218 169.02895 212.85106 C 169.39787 212.1542 170.05375 211.41634 170.46367 211.17038 C 171.11954 210.84245 171.40648 210.96542 172.10335 211.82626 C 172.59525 212.44114 172.96418 213.21999 172.96418 213.58892 C 172.96418 213.95784 173.12815 214.49074 173.33311 214.81868 C 173.66105 215.31058 173.82502 215.31058 174.35791 214.90066 C 174.84982 214.49074 175.30073 214.53173 176.89942 215.2286 C 180.30176 216.7453 180.75267 216.41737 180.75267 212.35915 C 180.75267 211.0474 180.91664 209.94062 181.1216 209.94062 C 181.32656 209.94062 182.43335 210.96542 183.54013 212.23618 Z" fill="#FFFFFF"/>
        </g>
        <g id="Graphic_1083">
          <path d="M 193.25525 211.5803 C 193.87013 212.23618 195.0179 212.97403 195.75577 213.21999 C 198.2153 214.03983 199.52704 216.58134 198.1333 217.7701 C 197.27247 218.46697 196.24767 217.8111 195.83775 216.2944 C 195.46882 214.90066 194.89493 214.44975 193.37823 214.44975 C 192.06648 214.44975 191.9435 214.28578 191.57458 212.0722 C 191.24664 210.0226 191.65656 209.89963 193.25525 211.5803 Z" fill="#FFFFFF"/>
        </g>
        <g id="Graphic_1082">
          <path d="M 314.55075 212.89205 C 315.20663 216.08943 315.12464 221.9513 314.3868 226.0915 C 313.48496 230.92856 313.40298 231.2565 312.50115 231.2565 C 311.7633 231.2565 311.7633 231.7074 312.54214 232.7322 C 312.87008 233.14213 313.11603 234.3309 313.11603 235.3557 C 313.03405 239.90582 311.96825 240.64367 306.47532 239.82383 C 302.4581 239.24994 301.4743 238.67606 301.9662 237.24133 C 302.13016 236.79042 302.29413 235.72463 302.29413 234.90479 C 302.29413 234.08494 302.54008 233.14213 302.82703 232.8142 C 303.07298 232.48625 303.68786 231.2155 304.09778 229.98574 C 305.73746 225.4766 306.5163 223.63197 307.5821 221.82832 C 308.156 220.80352 309.38576 218.58995 310.2466 216.90927 C 311.84528 213.83487 313.239 211.99022 313.97687 211.99022 C 314.18183 211.99022 314.46877 212.40015 314.55075 212.89205 Z" fill="#FFFFFF"/>
        </g>
        <g id="Graphic_1081">
          <path d="M 162.88014 216.17141 C 163.536 218.71292 162.42922 219.49177 161.32244 217.2372 C 160.4616 215.51554 160.5026 215.2696 161.65037 215.2696 C 162.30625 215.2696 162.71617 215.55653 162.88014 216.17141 Z" fill="#FFFFFF"/>
        </g>
        <g id="Graphic_1080">
          <path d="M 201.86358 218.38499 C 202.97037 220.72153 202.06854 221.82832 200.42886 220.18864 C 199.65001 219.4098 199.28108 216.95026 199.89597 216.37638 C 200.30589 215.96645 201.08474 216.7863 201.86358 218.38499 Z" fill="#FFFFFF"/>
        </g>
        <g id="Graphic_1079">
          <path d="M 167.14331 217.56514 C 167.6762 217.93407 168.04514 218.50796 168.00414 218.8769 C 167.88117 220.18864 168.04514 220.3116 168.783 219.61475 C 169.52085 218.99987 169.64383 218.99987 170.91458 219.8607 C 173.04617 221.33641 173.70204 222.56618 173.866 225.31264 C 173.98898 227.52622 173.907 227.77217 173.21014 227.6492 C 171.93938 227.40324 170.21772 225.92752 169.39787 224.32883 C 168.49605 222.56618 168.12712 222.23824 166.93835 222.23824 C 166.40545 222.23824 165.99553 221.9923 165.99553 221.66435 C 165.99553 221.33641 165.6266 220.3116 165.21668 219.3278 C 164.76577 218.344 164.51982 217.40118 164.6018 217.2372 C 164.92974 216.7043 166.1595 216.86828 167.14331 217.56514 Z" fill="#FFFFFF"/>
        </g>
        <g id="Graphic_1078">
          <path d="M 52.529514 222.73014 C 54.333165 226.33745 56.300784 230.51864 57.07963 232.48625 C 57.85848 234.3719 62.81852 243.0622 63.92531 244.45594 C 64.37622 245.07082 64.9911 246.1366 65.23705 246.87447 C 65.64697 248.10423 65.60598 248.2682 64.54019 249.12903 C 63.39241 250.03086 62.121656 250.44078 57.694514 251.3426 C 54.743085 251.9165 53.759276 251.62955 53.02142 249.8669 C 52.24257 248.02224 52.28356 247.40736 53.308363 246.01363 C 54.29217 244.7019 54.128205 243.5541 52.89844 243.5541 C 51.750665 243.5541 51.340745 242.6113 50.80785 238.63506 C 50.561895 236.70844 50.27495 235.06875 50.151975 234.90479 C 49.70106 234.16693 49.168165 224.5338 49.41412 221.70534 C 49.66007 218.75391 49.742054 218.54895 50.356935 219.12284 C 50.725864 219.45078 51.66868 221.09046 52.529514 222.73014 Z" fill="#FFFFFF"/>
        </g>
        <g id="Graphic_1077">
          <path d="M 160.66657 222.19725 C 161.28145 223.427 161.15847 224.20586 160.25664 224.69776 C 159.4778 225.10768 159.4368 225.0667 159.68276 224.12387 C 159.80573 223.59098 159.72375 222.73014 159.4368 222.27923 C 159.06788 221.58237 159.10887 221.4184 159.60077 221.4184 C 159.9697 221.4184 160.42061 221.78733 160.66657 222.19725 Z" fill="#FFFFFF"/>
        </g>
        <g id="Graphic_1076">
          <path d="M 176.65347 222.8941 C 176.65347 223.26304 177.10438 224.28784 177.67827 225.27165 C 179.31795 228.1001 179.97383 230.2317 179.35894 231.05153 C 178.90803 231.6664 178.74406 231.7074 177.39133 231.13352 C 176.28454 230.6826 175.87462 230.2317 175.66966 229.2069 C 175.34172 227.52622 175.34172 223.34503 175.66966 222.4842 C 175.9566 221.70534 176.65347 222.03328 176.65347 222.8941 Z" fill="#FFFFFF"/>
        </g>
        <g id="Graphic_1075">
          <path d="M 197.84636 223.05808 C 198.87116 225.0667 198.25628 229.24788 197.1085 228.1001 C 196.6166 227.6082 195.50982 222.36122 195.87874 222.03328 C 196.32966 221.54137 197.35446 222.07427 197.84636 223.05808 Z" fill="#FFFFFF"/>
        </g>
        <g id="Graphic_1074">
          <path d="M 317.25623 222.4432 C 317.25623 222.77114 316.9693 223.05808 316.64135 223.05808 C 315.98548 223.05808 315.8215 222.56618 316.3134 222.11526 C 316.76433 221.62336 317.25623 221.78733 317.25623 222.4432 Z" fill="#FFFFFF"/>
        </g>
        <g id="Graphic_1073">
          <path d="M 163.94593 224.4518 C 163.94593 225.27165 162.88014 226.0915 162.5112 225.5176 C 162.10129 224.86173 162.5932 223.87792 163.33105 223.87792 C 163.65899 223.87792 163.94593 224.12387 163.94593 224.4518 Z" fill="#FFFFFF"/>
        </g>
        <g id="Graphic_1072">
          <path d="M 201.16672 224.82074 C 201.2487 225.23066 201.04374 225.5176 200.67481 225.5176 C 199.93696 225.5176 199.48605 224.86173 199.81398 224.24685 C 200.1829 223.67296 201.00275 224.0009 201.16672 224.82074 Z" fill="#FFFFFF"/>
        </g>
        <g id="Graphic_1071">
          <path d="M 167.2253 225.4766 C 167.43026 225.92752 167.63522 226.82935 167.63522 227.52622 C 167.63522 228.51002 167.47125 228.79697 166.81537 228.79697 C 165.58561 228.79697 164.6428 227.1163 165.1347 225.76356 C 165.6266 224.4928 166.61041 224.36983 167.2253 225.4766 Z" fill="#FFFFFF"/>
        </g>
        <g id="Graphic_1070">
          <path d="M 188.54117 225.96852 C 188.54117 226.17348 188.3772 226.33745 188.13124 226.33745 C 187.92628 226.33745 187.72132 226.0505 187.72132 225.68157 C 187.72132 225.35364 187.92628 225.18967 188.13124 225.31264 C 188.3772 225.43562 188.54117 225.72256 188.54117 225.96852 Z" fill="#FFFFFF"/>
        </g>
        <g id="Graphic_1069">
          <path d="M 206.49569 225.68157 C 207.39751 226.0095 210.14398 226.5834 212.6035 226.91133 C 215.02204 227.28026 218.42438 227.85415 220.10505 228.1821 C 232.40267 230.6826 232.11572 230.60062 231.7878 232.11733 C 231.54184 233.14213 231.62382 233.3061 232.36168 233.3061 C 232.85358 233.3061 233.2225 233.06014 233.2225 232.69121 C 233.2225 231.7894 236.21493 231.91237 238.9614 232.93717 C 240.19116 233.38808 241.78985 233.87998 242.44572 234.00296 C 244.20838 234.3309 244.98723 235.19173 246.6269 238.34812 C 247.81568 240.76665 247.97965 241.42252 247.7337 242.93923 C 247.36477 245.48074 246.79088 246.05463 244.5773 246.30058 C 243.38854 246.46455 242.69168 246.7105 242.77366 246.99744 C 242.93763 247.44836 244.6593 247.53034 246.95485 247.2024 C 247.97965 247.07943 248.2256 247.2024 248.3076 247.94026 C 248.43056 248.7191 248.2666 248.88308 247.40576 248.88308 C 246.25798 248.88308 245.39715 249.94887 244.94624 251.8755 C 244.53632 253.59716 242.1178 255.9747 239.28933 257.4914 C 237.8546 258.22927 236.00997 259.29506 235.19013 259.82796 C 233.42747 260.89375 232.1977 261.05772 231.82878 260.1559 C 231.54184 259.41804 229.49223 259.33605 228.79537 260.03292 C 228.50842 260.31986 228.30346 260.93474 228.30346 261.46764 C 228.30346 263.31228 227.36065 264.50105 224.61418 265.93577 C 220.67894 267.98538 219.08025 269.50208 217.44057 272.5765 C 216.66172 274.0932 215.227 276.26577 214.32517 277.37256 C 213.38235 278.52034 212.0706 280.242 211.37374 281.2668 C 210.67688 282.2916 209.36513 283.9313 208.4633 284.99708 C 207.5205 286.0219 206.61866 287.16966 206.3727 287.57958 C 206.12676 288.0305 205.14295 288.39942 203.70823 288.64538 C 200.46985 289.17827 198.33827 289.67018 197.1495 290.24407 C 196.32966 290.654 195.6328 290.613 193.66517 290.0801 C 190.54978 289.30125 188.21323 287.57958 186.98347 285.32502 C 186.49156 284.3412 185.71271 283.15244 185.34378 282.70153 C 184.93386 282.2506 184.196 281.06184 183.7451 280.03704 C 182.96625 278.43835 182.80228 276.96264 182.39236 268.76423 C 182.10541 263.59923 181.77748 259.1721 181.6545 258.92613 C 181.49053 258.72117 181.36756 255.27784 181.36756 251.26062 C 181.36756 247.2844 181.20359 243.88205 181.03962 243.6771 C 180.83466 243.51312 180.26077 243.84105 179.76886 244.41494 C 179.031 245.23478 178.74406 246.2186 178.5801 248.51415 C 178.21117 252.49038 178.21117 264.17312 178.5391 266.42768 C 178.78506 267.9444 178.70307 268.27232 177.92422 268.8462 C 177.06339 269.4201 177.06339 269.50208 177.71926 270.23994 C 178.33414 270.9368 178.33414 271.10077 177.76025 272.37153 C 177.0224 273.88823 176.94041 275.159 177.30934 277.90546 C 177.63728 280.07803 176.57148 283.68534 175.13676 285.366 C 173.70204 287.08768 170.2997 288.6044 167.2253 288.89133 C 164.68379 289.13728 164.43783 289.0553 162.5112 287.78454 C 161.28145 286.9237 159.31383 284.8331 157.4282 282.3326 C 153.45196 277.0856 149.92665 273.5603 147.0982 271.9206 C 145.82744 271.18276 144.55669 270.36292 144.31073 270.03498 C 144.02379 269.70704 143.08097 269.3381 142.17915 269.17415 C 141.27732 269.01018 138.85879 268.14935 136.7682 267.24752 C 134.6776 266.3867 131.64419 265.2799 130.0045 264.86998 C 128.32383 264.46006 126.68415 263.84518 126.31522 263.51724 C 125.9053 263.1893 124.75752 262.53343 123.69173 262.04153 C 121.47816 260.97574 118.28078 257.69637 117.33796 255.5238 C 116.92804 254.53998 116.68209 252.69534 116.6411 250.3588 C 116.6001 247.03844 116.68209 246.6695 117.54292 246.1366 C 118.03482 245.76768 118.44474 245.1528 118.44474 244.6609 C 118.44474 241.21756 127.70895 234.2899 132.83296 233.92098 C 133.98074 233.839 135.12851 233.59304 135.37447 233.38808 C 135.66141 233.14213 136.89117 232.69121 138.12093 232.36328 C 139.3507 232.03534 143.32692 230.88756 146.93423 229.82177 C 154.2718 227.69018 156.8543 227.28026 157.79712 228.0591 C 158.12506 228.34606 158.9039 229.37086 159.51879 230.31368 L 160.66657 232.03534 L 158.49399 234.49487 C 153.90288 239.78284 154.10784 241.17657 158.82192 236.99538 C 163.65899 232.7322 163.90494 234.00296 159.80573 241.5045 C 156.8543 246.95645 155.62454 250.15383 156.11645 251.4246 L 156.44438 252.28542 L 157.10026 251.3016 C 157.46918 250.7687 157.79712 250.11284 157.79712 249.8669 C 157.79712 249.62094 158.49399 248.3092 159.35482 246.99744 C 160.17466 245.6447 161.11748 244.20998 161.40442 243.75907 C 161.69137 243.30816 162.18327 242.36534 162.47022 241.70947 C 163.577 239.33193 165.54462 236.99538 166.44645 236.99538 C 167.2253 236.99538 167.30728 237.15935 167.10232 238.3891 C 166.97934 239.16796 166.40545 240.9716 165.79057 242.40633 C 164.23287 246.09562 164.1099 246.54653 164.80676 246.34157 C 165.1347 246.2596 166.03653 244.90685 166.81537 243.30816 C 167.92216 241.13558 168.49605 240.4387 169.2339 240.35673 C 170.38168 240.19276 176.77644 241.25856 181.24458 242.36534 L 184.44196 243.1442 L 186.45057 242.1194 C 187.55736 241.5865 189.27902 241.0126 190.26283 240.88963 C 193.33724 240.4387 193.87013 240.27475 193.87013 239.65986 C 193.87013 239.33193 194.0751 239.04498 194.32105 239.04498 C 195.14089 239.04498 198.50224 241.91443 200.01894 243.96403 C 200.87978 245.1118 202.3555 246.91546 203.2983 247.98125 C 204.24112 249.04705 205.71684 251.09665 206.57767 252.57236 C 207.4385 254.04808 208.38132 255.23685 208.66827 255.23685 C 210.18497 255.23685 209.0372 251.62955 206.49569 248.39117 C 205.3479 246.91546 205.3479 246.87447 206.16775 246.42355 C 207.35652 245.80867 207.19255 245.23478 205.83981 245.27578 C 203.8312 245.35776 203.50327 245.02982 199.773 239.78284 C 198.7072 238.26613 197.92835 234.94578 198.6662 234.94578 C 198.91216 234.94578 201.00275 236.54447 203.3393 238.4711 C 205.67585 240.4387 207.64346 241.83244 207.72545 241.5455 C 207.9304 240.93062 205.3889 237.73324 202.72442 235.3147 C 200.63382 233.38808 200.63382 233.38808 201.2077 232.03534 C 202.06854 229.82177 202.8474 227.44423 203.09335 226.21447 C 203.3393 224.94372 204.03616 224.82074 206.49569 225.68157 Z" fill="#FFFFFF"/>
        </g>
        <g id="Graphic_1068">
          <path d="M 183.13021 229.00193 C 184.48295 230.51864 185.2618 232.65022 185.2618 234.8228 C 185.2618 236.46248 184.68791 236.54447 182.92525 235.02776 C 181.6955 234.00296 181.57252 233.67502 181.32656 230.7236 C 180.99863 227.1163 181.28557 226.87034 183.13021 229.00193 Z" fill="#FFFFFF"/>
        </g>
        <g id="Graphic_1067">
          <path d="M 194.0341 228.75598 C 194.97692 229.82177 194.77196 232.1993 193.70616 232.40427 C 192.72236 232.60923 192.23045 231.83038 192.23045 229.98574 C 192.23045 227.81316 192.84533 227.40324 194.0341 228.75598 Z" fill="#FFFFFF"/>
        </g>
        <g id="Graphic_1066">
          <path d="M 174.52188 230.88756 C 174.4399 233.3471 173.78402 233.839 172.3083 232.48625 C 171.07855 231.29748 170.91458 229.45284 172.10335 229.82177 C 172.67724 229.98574 173.04617 229.82177 173.3741 229.2069 C 174.07097 227.89514 174.56287 228.592 174.52188 230.88756 Z" fill="#FFFFFF"/>
        </g>
        <g id="Graphic_1065">
          <path d="M 190.50878 228.87895 C 191.36962 229.7398 191.04168 230.43665 189.81192 230.43665 C 188.45918 230.43665 187.92628 229.90375 188.29521 229.00193 C 188.58216 228.26407 189.81192 228.1821 190.50878 228.87895 Z" fill="#FFFFFF"/>
        </g>
        <g id="Graphic_1064">
          <path d="M 196.00172 229.6988 C 195.71478 229.98574 195.50982 230.02673 195.50982 229.78078 C 195.50982 229.53483 195.6328 229.2069 195.79676 229.0839 C 195.91974 228.91995 196.1657 228.87895 196.28866 229.00193 C 196.37065 229.1249 196.24767 229.45284 196.00172 229.6988 Z" fill="#FFFFFF"/>
        </g>
        <g id="Graphic_1063">
          <path d="M 166.24149 231.99435 C 165.83156 232.40427 165.05272 231.37947 165.38065 230.84657 C 165.6266 230.47764 165.79057 230.51864 166.07752 231.01054 C 166.32347 231.42046 166.36446 231.83038 166.24149 231.99435 Z" fill="#FFFFFF"/>
        </g>
        <g id="Graphic_1062">
          <path d="M 190.30382 233.42907 C 190.9597 234.2899 191.04168 234.65883 190.67275 235.02776 C 190.3858 235.3147 190.18085 235.9296 190.18085 236.4215 C 190.18085 239.08598 188.09025 237.03637 187.8033 234.08494 C 187.63934 232.11733 187.63934 231.99435 188.54117 232.15832 C 189.07406 232.1993 189.85291 232.7732 190.30382 233.42907 Z" fill="#FFFFFF"/>
        </g>
        <g id="Graphic_1061">
          <path d="M 179.52291 233.47006 C 179.52291 233.59304 179.35894 233.798 179.113 233.92098 C 178.90803 234.04395 178.70307 233.96197 178.70307 233.757 C 178.70307 233.51106 178.90803 233.3061 179.113 233.3061 C 179.35894 233.3061 179.52291 233.38808 179.52291 233.47006 Z" fill="#FFFFFF"/>
        </g>
        <g id="Graphic_1060">
          <path d="M 180.34275 236.62645 C 180.34275 237.07737 180.1378 237.81522 179.89184 238.26613 C 179.5639 238.922 179.35894 239.004 178.86704 238.59407 C 178.29315 238.14316 178.0472 235.72463 178.5391 235.23272 C 179.031 234.74082 180.34275 235.76562 180.34275 236.62645 Z" fill="#FFFFFF"/>
        </g>
        <g id="Graphic_1059">
          <path d="M 173.4151 236.01157 C 173.907 236.58546 173.866 236.66744 173.21014 236.54447 C 172.75922 236.46248 172.3493 236.13455 172.22633 235.8476 C 172.02137 235.15074 172.75922 235.23272 173.4151 236.01157 Z" fill="#FFFFFF"/>
        </g>
        <g id="Graphic_1058">
          <path d="M 182.39236 240.23375 C 182.39236 241.0946 181.44954 242.0784 181.03962 241.62748 C 180.87565 241.5045 180.75267 240.93062 180.75267 240.39772 C 180.75267 239.74185 180.99863 239.4549 181.57252 239.4549 C 182.10541 239.4549 182.39236 239.74185 182.39236 240.23375 Z" fill="#FFFFFF"/>
        </g>
        <g id="Graphic_1057">
          <path d="M 306.5983 241.70947 C 310.6565 242.40633 311.10742 242.81625 311.10742 245.80867 C 311.10742 249.37498 310.82048 249.49796 305.4915 247.89927 C 302.95 247.1614 300.61345 246.30058 300.24453 246.01363 C 299.54766 245.43975 299.4247 243.6771 300.03957 242.16038 C 300.53147 240.88963 301.4743 240.80764 306.5983 241.70947 Z" fill="#FFFFFF"/>
        </g>
        <g id="Graphic_1056">
          <path d="M 304.9586 249.62094 C 309.05782 250.68673 309.26278 250.8097 309.38576 251.9165 C 309.46774 252.57236 309.01683 254.13006 308.36095 255.60578 C 307.70508 256.9585 306.84425 259.1311 306.43433 260.36085 C 306.0244 261.59062 305.24556 263.59923 304.71266 264.788 C 303.81084 266.7966 303.68786 266.91958 302.4171 266.8376 C 301.14635 266.71462 301.06437 266.7966 300.9414 268.02637 C 300.8594 269.05117 300.9824 269.3791 301.4333 269.3791 C 302.4991 269.3791 302.21214 271.4697 300.8594 274.0112 C 300.20353 275.28196 299.62965 276.55272 299.62965 276.83966 C 299.62965 277.1676 298.8918 278.84827 297.98996 280.65192 C 297.08814 282.45557 296.35028 284.17724 296.35028 284.50518 C 296.35028 285.16105 294.2187 288.6044 293.76778 288.64538 C 293.6038 288.64538 293.27588 288.15347 293.02992 287.4976 C 292.702 286.63676 292.74298 285.8989 293.2349 284.3412 C 294.99754 278.7253 295.7354 274.0112 296.7602 262.2055 C 297.49806 253.9251 298.7688 248.47316 299.95758 248.47316 C 300.3265 248.51415 302.58107 249.00605 304.9586 249.62094 Z" fill="#FFFFFF"/>
        </g>
        <g id="Graphic_1055">
          <path d="M 251.05406 250.48177 C 250.8901 250.8507 250.72612 251.99847 250.64413 253.02328 C 250.52116 255.23685 249.70132 256.87653 247.81568 258.88514 C 247.03683 259.70498 246.29898 260.85276 246.176 261.38566 C 246.05302 261.91855 245.27418 262.86137 244.49533 263.47625 C 243.71648 264.05014 243.0606 264.86998 243.0606 265.2799 C 243.0606 266.18173 239.24834 272.08458 236.46088 275.48692 L 234.3293 278.06942 L 229.57422 273.31435 L 224.81914 268.51827 L 226.17188 267.3295 C 226.90973 266.63264 227.85255 266.09974 228.26247 266.09974 C 229.04132 266.09974 232.93557 264.17312 236.70683 261.95954 C 237.8546 261.30367 239.57628 260.36085 240.60108 259.90994 C 241.62588 259.41804 242.73267 258.88514 243.0606 258.72117 C 243.38854 258.5572 244.78227 256.87653 246.135 254.9089 C 247.48775 252.98228 249.04544 250.93268 249.57834 250.3588 C 250.60314 249.252 251.50497 249.334 251.05406 250.48177 Z" fill="#FFFFFF"/>
        </g>
        <g id="Graphic_1054">
          <path d="M 67.36864 252.4084 C 67.491616 252.77732 67.61459 253.76113 67.61459 254.62197 C 67.61459 256.09768 67.5736 256.17966 65.892925 256.42562 C 64.95011 256.5896 63.22844 257.24546 62.080664 257.86034 C 59.45717 259.37705 57.20261 260.0739 56.17781 259.74597 C 55.316974 259.50002 54.08721 257.40943 54.08721 256.26165 C 54.08721 255.27784 55.357966 254.25304 56.99765 253.9251 C 57.7765 253.80213 59.21122 253.22824 60.19503 252.69534 C 62.44959 251.50657 66.95872 251.3426 67.36864 252.4084 Z" fill="#FFFFFF"/>
        </g>
        <g id="Graphic_1053">
          <path d="M 69.04931 259.21308 C 69.50023 261.26268 70.074115 267.2885 70.074115 270.07597 C 70.074115 271.71565 70.32007 273.64228 70.648004 274.38014 C 72.08273 277.86446 72.57463 280.07803 72.08273 280.6929 C 71.7138 281.14383 71.7138 281.71772 72.08273 283.15244 C 72.32868 284.17724 72.656615 286.75974 72.82058 288.89133 C 73.06654 292.6216 73.02554 292.74458 72.2057 292.74458 C 70.77098 292.74458 69.50023 290.613 68.680385 287.0057 C 68.55741 286.4318 67.73757 284.79212 66.79475 283.3984 C 65.892925 281.96367 65.15507 280.61093 65.15507 280.324 C 65.15507 280.03704 64.704156 279.13522 64.13027 278.31538 C 63.55638 277.49554 62.57257 275.159 61.875704 273.15038 C 61.21983 271.14177 60.15404 268.64125 59.539156 267.57546 C 58.88328 266.50966 58.145426 265.2389 57.899474 264.747 C 57.61253 264.2551 57.36658 263.35327 57.36658 262.7384 C 57.36658 261.34466 58.43237 260.72978 62.9415 259.541 C 64.704156 259.0491 66.261854 258.5982 66.34384 258.47522 C 66.42582 258.39324 67.0407 258.31125 67.65558 258.31125 C 68.51642 258.31125 68.885346 258.5572 69.04931 259.21308 Z" fill="#FFFFFF"/>
        </g>
        <g id="Graphic_1052">
          <path d="M 126.56117 266.59165 C 128.07788 267.3705 130.61939 268.4363 132.17708 268.9282 C 135.45645 269.953 137.793 271.0188 137.99796 271.63367 C 138.07994 271.87962 136.7272 273.68327 135.00554 275.6509 L 131.89014 279.2992 L 130.98831 277.86446 C 130.5374 277.0856 128.20085 274.42113 125.86431 271.9616 C 123.52776 269.54308 121.2322 266.91958 120.78129 266.14073 L 119.92046 264.747 L 121.88808 264.95197 C 122.95387 265.07494 125.08546 265.8128 126.56117 266.59165 Z" fill="#FFFFFF"/>
        </g>
        <g id="Graphic_1051">
          <path d="M 227.15569 273.5603 C 230.88596 277.7005 231.58283 278.7253 231.58283 279.91407 C 231.58283 281.55375 230.51703 280.93887 226.95072 277.1676 C 223.63037 273.68327 222.4826 271.71565 223.17946 270.60887 C 223.67136 269.83002 224.12227 270.19895 227.15569 273.5603 Z" fill="#FFFFFF"/>
        </g>
        <g id="Graphic_1050">
          <path d="M 142.26113 272.65847 C 143.32692 273.27335 143.24494 273.76526 141.72823 275.5279 C 140.99038 276.38875 139.67863 278.1104 138.8178 279.38117 C 137.95696 280.65192 136.80919 282.00466 136.2353 282.3736 C 135.25149 283.02946 135.1695 282.98847 134.1447 281.96367 C 133.24288 281.06184 133.1199 280.7339 133.48883 279.95506 C 134.10371 278.60232 137.62903 274.79006 138.48986 274.5031 C 138.94077 274.38014 139.39169 273.80625 139.51466 273.27335 C 139.8016 272.16657 140.8674 271.9206 142.26113 272.65847 Z" fill="#FFFFFF"/>
        </g>
        <g id="Graphic_1049">
          <path d="M 178.70307 275.118 C 178.70307 275.5279 178.49811 276.01982 178.29315 276.1428 C 177.76025 276.47073 177.30934 275.32296 177.63728 274.46212 C 177.96521 273.64228 178.70307 274.0932 178.70307 275.118 Z" fill="#FFFFFF"/>
        </g>
        <g id="Graphic_1048">
          <path d="M 146.5653 276.38875 C 147.22117 277.0856 149.27077 278.7663 151.11542 280.11903 C 153.86188 282.12764 154.64073 282.98847 155.50157 284.79212 C 156.07545 285.9809 156.8953 287.12867 157.30522 287.37462 C 158.412 287.9895 160.4616 291.0639 160.0107 291.51482 C 159.4778 292.0477 154.92768 291.30986 150.33657 289.91613 C 146.5243 288.80934 142.26113 286.71875 140.12954 284.99708 L 139.14573 284.21823 L 140.53946 281.38978 C 142.30212 277.82347 144.14677 275.118 144.84363 275.118 C 145.13058 275.118 145.86843 275.6919 146.5653 276.38875 Z" fill="#FFFFFF"/>
        </g>
        <g id="Graphic_1047">
          <path d="M 221.99069 276.30677 C 224.57319 278.1514 228.38545 282.41458 228.22148 283.23442 C 228.1395 283.64434 226.17188 284.9561 223.26144 286.5138 C 219.49017 288.5634 217.7275 289.26026 215.268 289.71117 C 211.70168 290.32605 206.9876 290.44903 206.9876 289.91613 C 206.9876 289.71117 208.0124 288.76835 209.24216 287.82553 C 211.6197 286.0219 215.92386 280.97986 217.07164 278.6843 C 218.17842 276.5937 219.2852 275.118 219.8591 275.118 C 220.14604 275.118 221.12985 275.6509 221.99069 276.30677 Z" fill="#FFFFFF"/>
        </g>
        <g id="Graphic_1046">
          <path d="M 233.14053 284.62815 C 233.42747 284.9151 233.63243 285.52998 233.63243 285.9809 C 233.63243 287.08768 235.3951 289.71117 238.30553 293.0725 C 239.57628 294.50724 241.83084 297.54065 243.30656 299.8362 C 244.82326 302.13176 246.46294 304.4683 246.99584 305.0422 C 251.382 309.79728 251.9149 310.90406 252.57076 316.64295 C 253.18564 322.0129 252.8987 323.24267 250.64413 325.90716 C 249.61933 327.09593 248.7995 328.3257 248.7995 328.61263 C 248.7995 328.94057 247.89767 330.08835 246.79088 331.15414 C 245.1102 332.79382 244.33136 333.24474 241.91283 333.8596 C 240.35513 334.26954 238.34652 334.9664 237.52668 335.37632 C 235.72303 336.31914 231.7878 337.17997 230.92695 336.85204 C 230.59902 336.72906 230.1481 336.15517 229.94315 335.5403 C 229.57422 334.63847 229.41025 334.5565 228.91834 334.9664 C 228.5904 335.25335 228.30346 335.9502 228.30346 336.5241 L 228.30346 337.5489 L 222.27763 337.26196 C 218.91628 337.139 214.7351 336.72906 212.93144 336.40112 C 211.1278 336.0322 208.38132 335.5813 206.78263 335.33533 C 205.22493 335.08938 203.42128 334.59747 202.8064 334.22854 C 201.86358 333.65466 201.53565 333.65466 200.67481 334.14656 C 199.773 334.59747 198.99414 334.5565 195.34585 333.9826 C 187.3114 332.67085 169.15192 333.20374 164.68379 334.9254 C 163.74097 335.25335 158.28903 335.78624 149.39375 336.40112 C 147.38514 336.5651 145.0076 336.85204 144.18776 337.098 C 142.46609 337.5899 140.74442 337.098 139.51466 335.74525 C 138.61284 334.72045 138.12093 334.76144 136.27629 335.9912 C 134.80058 337.016 134.63661 337.057 131.15228 336.64708 C 126.80712 336.15517 125.45439 335.62227 121.39617 332.79382 C 119.6745 331.56406 117.46094 330.17033 116.47713 329.67843 C 115.20637 329.02255 114.50951 328.2847 113.77165 326.84997 C 113.23875 325.78418 112.4599 324.26747 112.04998 323.48863 C 111.4761 322.42283 111.27113 321.23406 111.27113 318.77454 C 111.27113 315.8641 111.4351 315.16724 112.78784 312.42077 C 115.00141 307.91164 117.09201 304.83724 121.10923 300.28712 C 123.07685 298.07355 124.96248 295.61403 125.29042 294.87617 C 125.57736 294.1383 126.84812 292.45764 128.03689 291.1459 C 129.26665 289.83414 130.5784 288.0715 130.98831 287.21065 C 131.35724 286.3908 132.0951 285.489 132.628 285.28403 C 133.40685 284.9151 133.89875 285.12006 135.94835 286.71875 C 138.44887 288.68637 141.48228 290.24407 142.79403 290.28506 C 143.24494 290.28506 145.29454 291.1049 147.30315 292.1297 C 152.50915 294.6712 158.61696 296.02395 165.05272 296.02395 L 169.88978 296.02395 L 172.26732 293.97434 C 173.57906 292.86756 174.8908 291.80176 175.17775 291.6378 C 175.4647 291.43284 176.20256 290.44903 176.81744 289.38323 C 178.0882 287.21065 180.0558 285.366 181.08061 285.366 C 181.49053 285.366 183.99105 287.5386 186.65553 290.24407 L 191.4926 295.08113 L 194.40303 295.40906 C 196.04271 295.57303 198.1743 295.696 199.1991 295.696 C 202.39648 295.61403 216.04684 292.7036 219.69513 291.35085 C 223.38442 289.9981 228.75438 286.8827 230.35307 285.16105 C 231.41886 284.05426 232.36168 283.8493 233.14053 284.62815 Z" fill="#FFFFFF"/>
        </g>
        <g id="Graphic_1045">
          <path d="M 107.00796 315.70013 C 107.8688 316.19204 108.03276 317.74974 107.3359 318.4466 C 107.00796 318.77454 106.55705 318.81553 105.81919 318.5286 C 105.2863 318.32363 104.7124 318.24164 104.58943 318.32363 C 104.17951 318.73355 105.40927 319.75835 106.43407 319.88132 C 107.41788 320.0043 107.58185 320.29124 108.48367 324.43144 C 109.67244 329.8424 109.67244 329.8424 104.87637 331.52307 C 102.99074 332.17894 100.94114 333.24474 100.03931 334.0236 C 98.19467 335.5813 97.70276 335.70426 97.33383 334.59747 C 96.55499 332.09696 95.77614 326.768 95.61217 322.6278 L 95.40721 317.83172 L 97.0059 317.58577 C 102.7038 316.76593 104.50744 316.397 105.20431 315.9051 C 106.10614 315.20823 106.02415 315.20823 107.00796 315.70013 Z" fill="#FFFFFF"/>
        </g>
        <g id="Graphic_1044">
          <path d="M 272.16497 315.9051 C 272.5749 316.397 272.5749 316.64295 272.16497 317.13486 C 271.75505 317.62676 271.919 318.0367 273.0668 319.30744 C 274.41953 320.78315 274.5425 321.23406 275.36235 326.44005 C 276.42814 332.9168 276.51012 336.19616 275.73127 336.19616 C 275.40334 336.19616 273.23076 335.25335 270.8942 334.10557 C 268.55766 332.9578 265.7292 331.72803 264.58143 331.4001 C 261.2201 330.4163 255.80913 328.2437 255.60417 327.7518 C 255.5222 327.50585 255.89112 326.07112 256.424 324.51343 C 257.0389 322.79176 257.40782 320.78315 257.40782 319.30744 C 257.40782 317.09386 257.4898 316.9299 258.47362 316.68394 C 259.37544 316.438 262.1629 316.76593 266.22112 317.58577 C 267.04096 317.70874 270.32032 316.356 270.77124 315.65914 C 271.09917 315.12625 271.59108 315.20823 272.16497 315.9051 Z" fill="#FFFFFF"/>
        </g>
        <g id="Graphic_1043">
          <path d="M 182.6793 336.40112 C 185.54875 337.26196 186.2456 338.1638 185.91767 340.45934 C 185.7537 341.48414 185.42577 342.42696 185.2208 342.59092 C 184.97486 342.7139 184.93386 343.7797 185.09783 345.2144 C 185.34378 347.346 185.2618 347.63295 184.52394 348.04287 C 184.07303 348.2888 182.76129 348.4938 181.6135 348.4938 C 178.12918 348.4938 177.39133 347.05906 177.5553 340.7463 L 177.67827 337.30295 L 179.113 336.5651 C 179.89184 336.11418 180.54771 335.78624 180.5887 335.78624 C 180.5887 335.78624 181.53152 336.0732 182.6793 336.40112 Z" fill="#FFFFFF"/>
        </g>
        <g id="Graphic_1042">
          <path d="M 175.34172 338.0818 C 175.4237 338.5327 175.09577 339.27057 174.60387 339.6805 L 173.78402 340.41835 L 174.80883 341.52513 C 175.75164 342.50894 175.87462 342.91886 175.75164 345.05045 L 175.62867 347.469 L 171.93938 347.469 C 169.93077 347.469 167.51224 347.264 166.61041 346.97707 C 165.70859 346.69013 161.93732 345.99327 158.20704 345.41938 C 151.2384 344.3536 148.32796 343.36977 147.30315 341.7301 C 146.0734 339.84446 147.50811 339.47553 160.0107 338.45073 C 164.31486 338.0818 168.66002 337.6309 169.68482 337.42593 C 170.70962 337.26196 172.3493 337.139 173.3741 337.17997 C 174.8908 337.22096 175.25974 337.38493 175.34172 338.0818 Z" fill="#FFFFFF"/>
        </g>
        <g id="Graphic_1041">
          <path d="M 200.63382 338.0408 C 202.23251 338.36874 206.3727 338.90164 209.93902 339.27057 C 218.01446 340.0904 220.10505 340.7053 220.10505 342.38596 C 220.10505 343.36977 219.77711 343.53374 216.53874 343.94366 C 215.02204 344.14862 212.6035 344.6815 211.20977 345.17342 C 209.81604 345.62434 207.68446 346.15723 206.4137 346.2802 C 204.48708 346.52616 203.95418 346.44418 203.25731 345.7883 C 202.43747 345.05045 202.39648 345.05045 201.69962 345.99327 C 201.12573 346.73112 200.30589 347.01807 197.31347 347.469 C 191.4106 348.3298 188.13124 348.61676 188.09025 348.24783 C 187.76232 346.11624 187.92628 337.5489 188.29521 337.30295 C 188.9101 336.85204 197.06751 337.34394 200.63382 338.0408 Z" fill="#FFFFFF"/>
        </g>
        <g id="Graphic_1040">
          <path d="M 144.26974 339.88545 C 144.26974 340.0904 143.69585 340.29537 142.99899 340.29537 C 142.30212 340.29537 141.85121 340.1314 142.01518 339.88545 C 142.13815 339.6395 142.71204 339.47553 143.28593 339.47553 C 143.81883 339.47553 144.26974 339.6395 144.26974 339.88545 Z" fill="#FFFFFF"/>
        </g>
        <g id="Graphic_1039">
          <path d="M 225.43402 341.1152 C 225.43402 341.6071 223.71235 342.34497 222.52358 342.34497 C 221.3758 342.34497 221.58077 341.6481 222.8925 341.1972 C 224.36823 340.6233 225.43402 340.6233 225.43402 341.1152 Z" fill="#FFFFFF"/>
        </g>
      </g>
    </g>
  </g>
</svg>
