<?xml version="1.0" encoding="UTF-8" standalone="no"?>
<!DOCTYPE svg PUBLIC "-//W3C//DTD SVG 1.1//EN" "http://www.w3.org/Graphics/SVG/1.1/DTD/svg11.dtd">
<svg xmlns="http://www.w3.org/2000/svg" xmlns:dc="http://purl.org/dc/elements/1.1/" version="1.1" xmlns:xl="http://www.w3.org/1999/xlink" viewBox="72 63 81 351" width="81" height="351">
  <defs>
    <clipPath id="artboard_clip_path">
      <path d="M 72 63 L 153 63 L 153 414 L 72 414 Z"/>
    </clipPath>
  </defs>
  <g id="Scimitar_(2)" stroke-dasharray="none" fill="none" stroke="none" stroke-opacity="1" fill-opacity="1">
    <title>Scimitar (2)</title>
    <g id="Scimitar_(2)_Layer_2" clip-path="url(#artboard_clip_path)">
      <title>Layer 2</title>
      <g id="Group_48">
        <g id="Graphic_53">
          <path d="M 118.34187 355.4816 C 103.1954 282.07895 98.25395 194.15892 139.45598 120.70862 C 131.1426 114.81208 127.00475 92.63015 126.022 65.25 C 64.93149 142.38803 69.485145 272.10014 105.52317 360.73246 L 118.34187 355.4816 Z" fill="#FFFFFF"/>
          <path d="M 118.34187 355.4816 C 103.1954 282.07895 98.25395 194.15892 139.45598 120.70862 C 131.1426 114.81208 127.00475 92.63015 126.022 65.25 C 64.93149 142.38803 69.485145 272.10014 105.52317 360.73246 L 118.34187 355.4816 Z" stroke="black" stroke-linecap="butt" stroke-linejoin="round" stroke-width="1.6499413"/>
        </g>
        <g id="Graphic_52">
          <title>path4345</title>
          <path d="M 118.45838 401.70714 L 132.12905 396.5018 C 129.44529 384.2332 125.39394 372.55073 120.50278 361.22812 L 106.14754 366.0458 C 109.0206 377.20655 112.87797 388.95915 118.45838 401.70714 Z" fill="#FFFFFF"/>
          <path d="M 118.45838 401.70714 L 132.12905 396.5018 C 129.44529 384.2332 125.39394 372.55073 120.50278 361.22812 L 106.14754 366.0458 C 109.0206 377.20655 112.87797 388.95915 118.45838 401.70714 Z" stroke="black" stroke-linecap="butt" stroke-linejoin="round" stroke-width="1.5351627"/>
        </g>
        <g id="Graphic_51">
          <title>path4347</title>
          <path d="M 106.1767 368.307 C 112.35588 365.2839 115.81763 368.0422 122.54357 365.01502 M 107.38435 372.49874 C 113.56354 369.47565 117.02528 372.23395 123.75123 369.20676 M 108.99461 376.71417 C 115.1738 373.6911 118.63554 376.44937 125.36148 373.4222 M 110.21412 381.048 C 116.3933 378.0249 119.85505 380.7832 126.58099 377.756 M 111.61632 385.05826 C 117.69175 382.2066 121.14399 384.90785 127.75987 382.0582 M 113.27906 389.1531 C 119.3769 386.2384 122.8207 388.9543 129.45973 386.039 M 114.82019 392.95665 C 120.68239 390.22344 124.02086 392.82827 130.40496 390.09793 M 116.44736 396.7233 C 122.11053 394.18915 125.37847 396.6961 131.54836 394.17003" fill="#FFFFFF"/>
          <path d="M 106.1767 368.307 C 112.35588 365.2839 115.81763 368.0422 122.54357 365.01502 M 107.38435 372.49874 C 113.56354 369.47565 117.02528 372.23395 123.75123 369.20676 M 108.99461 376.71417 C 115.1738 373.6911 118.63554 376.44937 125.36148 373.4222 M 110.21412 381.048 C 116.3933 378.0249 119.85505 380.7832 126.58099 377.756 M 111.61632 385.05826 C 117.69175 382.2066 121.14399 384.90785 127.75987 382.0582 M 113.27906 389.1531 C 119.3769 386.2384 122.8207 388.9543 129.45973 386.039 M 114.82019 392.95665 C 120.68239 390.22344 124.02086 392.82827 130.40496 390.09793 M 116.44736 396.7233 C 122.11053 394.18915 125.37847 396.6961 131.54836 394.17003" stroke="black" stroke-linecap="butt" stroke-linejoin="round" stroke-width="1.5351627"/>
        </g>
        <g id="Graphic_50">
          <title>path4349</title>
          <path d="M 134.4956 348.3621 C 132.17292 338.26444 144.26292 333.64106 147.40891 343.4006 C 148.2473 347.544 144.67767 350.98395 142.43601 352.6753 C 129.9567 362.1106 105.56892 364.25167 89.98404 374.03275 C 91.90241 386.04505 78.7292 385.06996 78.1993 378.1456 C 77.12791 361.799 121.01452 355.38103 134.49558 348.3621 Z" fill="#FFFFFF"/>
          <path d="M 134.4956 348.3621 C 132.17292 338.26444 144.26292 333.64106 147.40891 343.4006 C 148.2473 347.544 144.67767 350.98395 142.43601 352.6753 C 129.9567 362.1106 105.56892 364.25167 89.98404 374.03275 C 91.90241 386.04505 78.7292 385.06996 78.1993 378.1456 C 77.12791 361.799 121.01452 355.38103 134.49558 348.3621 Z" stroke="black" stroke-linecap="butt" stroke-linejoin="round" stroke-width="1.6499413"/>
        </g>
        <g id="Graphic_49">
          <title>path4351</title>
          <path d="M 117.13842 406.83055 C 118.33367 410.29246 123.67463 411.58944 129.06777 409.72744 C 134.46093 407.86543 137.86399 403.54955 136.66874 400.08764 C 135.47349 396.6257 130.13253 395.32875 124.73938 397.19076 C 119.34623 399.05276 115.94317 403.36864 117.13842 406.83055 Z" fill="#FFFFFF"/>
          <path d="M 117.13842 406.83055 C 118.33367 410.29246 123.67463 411.58944 129.06777 409.72744 C 134.46093 407.86543 137.86399 403.54955 136.66874 400.08764 C 135.47349 396.6257 130.13253 395.32875 124.73938 397.19076 C 119.34623 399.05276 115.94317 403.36864 117.13842 406.83055 Z" stroke="black" stroke-linecap="butt" stroke-linejoin="round" stroke-width="1.6499413"/>
        </g>
      </g>
    </g>
  </g>
</svg>
