<?xml version="1.0" encoding="UTF-8" standalone="no"?>
<!DOCTYPE svg PUBLIC "-//W3C//DTD SVG 1.1//EN" "http://www.w3.org/Graphics/SVG/1.1/DTD/svg11.dtd">
<svg xmlns="http://www.w3.org/2000/svg" xmlns:dc="http://purl.org/dc/elements/1.1/" xmlns:xl="http://www.w3.org/1999/xlink" version="1.1" viewBox="85.5 63 193.5 292.5" width="193.5" height="292.5">
  <defs>
    <clipPath id="artboard_clip_path">
      <path d="M 85.5 63 L 279 63 L 279 355.5 L 85.5 355.5 Z"/>
    </clipPath>
  </defs>
  <g id="Tower_(4)" fill="none" stroke-dasharray="none" stroke-opacity="1" stroke="none" fill-opacity="1">
    <title>Tower (4)</title>
    <g id="Tower_(4)_Layer_2" clip-path="url(#artboard_clip_path)">
      <title>Layer 2</title>
      <g id="Group_44">
        <g id="Graphic_57">
          <path d="M 93.24225 67.209825 C 92.86373 68.53466 92.10668 75.53734 91.91742 82.54003 L 91.34964 95.40982 L 103.27313 109.03667 L 115.38588 122.66351 L 114.25031 147.26754 C 113.49326 160.70512 112.16843 183.79505 111.22212 198.3682 C 110.27581 212.94136 109.3295 231.29975 109.14024 239.05948 C 108.76172 249.46888 107.43688 255.52525 104.4087 261.7709 C 102.13756 266.50243 99.29863 277.1011 98.16306 285.4286 C 97.02749 293.75612 95.70266 306.43666 94.94561 313.81787 C 94.18856 321.0098 92.25851 349.41286 93.01556 350.35917 C 93.7726 351.1162 167.87659 350.36735 186.12192 350.1072 C 204.36726 349.8471 271.128 351.491 272.88013 349.83016 C 273.99474 348.8815 271.33755 338.98968 270.76976 332.74404 C 270.39124 326.4984 269.25567 315.1427 268.30936 307.57223 C 267.1738 300.00176 266.41674 287.889 266.41674 280.88632 C 266.41674 273.88364 265.6597 267.44874 264.90265 266.31317 C 263.95634 265.36686 261.87446 260.82458 260.1711 256.09304 C 257.52144 249.09035 256.7644 236.22055 255.81808 184.93062 C 254.6825 128.34137 254.87178 122.09573 257.7107 119.2568 C 259.41406 117.55345 263.5778 112.06486 266.98453 106.95479 C 272.85164 98.05949 273.0409 97.30244 272.0946 81.78298 L 271.1483 65.88499 L 261.30667 65.31721 L 251.19058 65.74993 L 251.2758 71.37358 L 251.2758 78.18701 L 241.81272 78.18701 L 232.34963 78.18701 L 232.34963 71.562845 L 232.34963 64.938685 L 220.04762 64.938685 L 207.7456 64.938685 L 207.7456 71.37358 C 207.7456 76.29439 208.00533 78.02896 205.1664 78.97527 C 203.08453 79.54305 198.47178 79.7011 196.3899 79.13331 C 193.55097 78.18701 192.60467 76.29439 192.60467 71.37358 L 192.47009 65.22092 L 181.81675 65.31721 C 170.83957 65.88499 170.83957 65.88499 169.89326 72.50915 C 168.94695 78.56553 170.86317 79.00994 162.84533 78.97527 C 154.57694 78.93951 155.69863 78.75479 155.69863 72.50915 L 155.50937 65.88499 L 142.82883 65.31721 C 131.85165 64.74942 130.1483 65.12795 129.95903 68.15613 C 129.76977 70.04875 129.58051 73.2662 129.39125 75.34808 C 129.20198 78.37627 130.37095 79.45737 122.57782 79.13331 C 113.39306 78.75139 115.95366 78.75479 115.38588 71.94137 L 114.81809 64.938685 L 104.4087 64.938685 C 97.78454 64.938685 93.81004 65.88499 93.24225 67.209825 Z" fill="black"/>
        </g>
        <g id="Graphic_56">
          <path d="M 111.22212 75.34808 L 111.22212 81.97224 L 122.57782 81.97224 C 132.98722 81.97224 133.93353 81.59372 134.12279 77.61922 C 134.31205 75.34808 134.31205 72.31989 134.12279 70.99506 C 133.93353 69.48097 136.5832 68.72392 142.4503 68.72392 C 150.96708 68.72392 150.96708 68.72392 150.96708 75.34808 L 150.96708 81.97224 L 162.51205 81.97224 L 172.89659 82.14935 L 173.29997 75.7266 C 172.73218 69.85949 173.06647 68.90521 181.3608 68.92401 C 189.65514 68.94282 188.63017 68.72392 189.19795 74.780295 C 189.76574 81.02593 189.76574 81.24965 200.74292 81.81743 C 200.74292 81.81743 208.67082 81.91823 210.00911 80.94919 C 211.34741 79.98016 211.53084 75.34808 211.53084 75.34808 C 211.53084 68.72392 211.462 68.395 219.97878 68.395 C 228.49556 68.395 228.5644 68.72392 228.5644 75.34808 L 228.5644 81.97224 L 241.81272 81.97224 L 255.06104 81.97224 L 255.06104 75.34808 C 255.06104 69.10244 252.35113 68.395 258.59677 68.395 L 268.30936 68.72392 L 268.30936 80.64741 L 269.17704 93.78765 L 248.05835 93.89573 C 237.08117 94.65278 198.42654 93.78765 162.84533 93.78765 C 113.0695 93.78765 97.9738 94.65278 96.64897 92.76016 C 95.70266 91.62459 95.13487 85.75748 95.32413 80.07962 C 95.5134 74.40177 95.89192 69.48097 95.89192 69.10244 C 96.08118 68.91318 99.48789 68.72392 103.65165 68.72392 C 111.03286 68.72392 111.22212 68.91318 111.22212 75.34808 Z" fill="#FFFFFF"/>
        </g>
        <g id="Graphic_55">
          <path d="M 259.41406 111.11855 L 252.2221 119.82459 L 185.0342 119.82459 L 117.84628 119.82459 L 107.81541 108.46888 L 97.78454 97.11318 L 182.006 97.11318 C 252.03285 97.11318 268.119 95.74861 268.119 98.01975 C 268.119 98.01975 263.1993 106.19774 259.41406 111.11855 Z" fill="#FFFFFF"/>
        </g>
        <g id="Graphic_54">
          <path d="M 248.8154 125.88096 C 249.95097 127.39506 251.2758 153.51318 251.8436 188.33734 L 252.97916 248.52257 L 182.76306 248.52257 L 112.73621 248.52257 L 113.87178 227.136 C 114.43957 215.59103 115.38588 194.3937 115.95366 180.38834 C 116.52145 166.38297 117.46776 147.83532 118.03554 139.12928 L 119.17111 123.60982 L 183.14158 123.60982 C 231.9711 123.60982 247.49057 124.17761 248.8154 125.88096 Z" fill="#FFFFFF"/>
        </g>
        <g id="Graphic_53">
          <path d="M 257.7107 262.1494 L 260.54963 267.44874 L 245.97647 267.638 C 238.02748 267.638 203.01406 268.01653 168.56843 268.5843 L 105.54427 269.53062 L 107.43688 264.6098 C 108.57246 261.7709 111.11373 255.10257 112.06004 253.0207 C 113.95266 249.61398 115.95366 252.3078 184.08789 252.3078 C 239.54158 252.3078 253.83565 251.31734 253.83565 253.0207 C 253.83565 253.0207 256.38587 259.3105 257.7107 262.1494 Z" fill="#FFFFFF"/>
        </g>
        <g id="Graphic_52">
          <path d="M 264.52412 305.3011 C 265.47043 321.38833 266.98453 337.4756 267.5523 340.69303 L 268.49862 346.93867 L 238.02748 346.93867 L 207.7456 346.93867 L 207.36708 336.9078 C 207.36708 331.60847 206.98856 320.82055 206.61003 313.0608 C 206.42077 305.49035 205.09594 295.2702 203.96037 290.3494 C 202.63554 285.61787 199.98587 280.12928 197.904 278.23666 C 195.25433 275.96552 190.9013 275.0192 183.14158 275.0192 C 173.1107 275.0192 171.78587 275.587 166.48655 281.4541 C 162.89057 285.61787 160.05165 291.67424 158.72681 298.10914 C 157.59124 303.59773 156.26641 316.6568 155.88789 327.0662 L 155.13084 346.8928 L 125.28538 347.1851 L 96.08118 347.12793 L 96.08118 342.3964 C 96.08118 339.936 97.02749 329.14807 97.9738 318.36015 C 99.10937 307.57223 100.81272 292.99907 101.9483 285.9964 C 103.84091 273.69438 104.03017 273.31585 109.89729 272.74807 C 113.304 272.36955 147.9389 271.99102 187.30534 271.80176 C 242.56976 271.42324 259.19873 270.70158 260.71282 272.5942 C 260.71282 272.5942 263.38855 289.21384 264.52412 305.3011 Z" fill="#FFFFFF"/>
        </g>
        <g id="Graphic_51">
          <path d="M 197.3362 284.78245 C 200.20845 290.33746 200.93218 299.3556 201.8785 313.7395 C 202.8248 326.42003 203.20332 339.28983 202.63554 342.12875 L 202.52134 346.95623 L 177.1287 346.95623 C 157.44547 346.95623 159.77255 347.9392 159.67125 343.78215 C 159.6782 341.33617 159.86239 328.69117 160.61943 316.5784 C 161.755 298.03077 162.85554 294.7282 166.10802 288.56768 C 168.32681 284.30753 171.7952 281.2856 175.01264 279.77152 C 178.2301 278.25742 182.92388 277.86196 185.9805 278.1583 C 189.03713 278.4546 195.04012 280.10543 197.3362 284.78245 Z" fill="#FFFFFF"/>
        </g>
        <g id="Group_48">
          <g id="Graphic_50">
            <path d="M 140.70845 151.54773 C 139.07219 153.49864 138.1949 160.91498 138.1799 171.33125 C 137.99796 187.8134 138.00456 188.00255 142.77946 189.16145 C 145.44733 189.63642 148.66282 189.52413 149.58213 188.73452 C 150.88634 188.12084 151.37872 180.52857 151.03525 170.69295 C 150.7182 161.61392 149.84032 152.74385 149.21344 151.06135 C 148.58655 149.37885 146.838 148.11427 145.51397 148.1605 C 144.18995 148.20674 141.96643 149.61003 140.70845 151.54773 Z" fill="black"/>
          </g>
          <g id="Graphic_49">
            <path d="M 146.80798 168.9468 C 146.72031 177.28245 148.80741 184.23288 145.06663 184.15778 C 141.32585 184.08267 143.06288 181.00834 142.55248 177.23862 C 142.22463 173.27315 142.17599 166.45727 142.5849 161.89794 C 143.00043 157.52776 144.00981 153.89435 145.14469 153.85471 C 146.09042 153.82169 146.88904 160.422 146.80798 168.9468 Z" fill="white"/>
          </g>
        </g>
        <g id="Group_45">
          <g id="Graphic_47">
            <path d="M 216.40129 151.35386 C 214.77162 153.49392 213.88774 160.72111 213.88594 171.51567 C 213.67758 187.24125 213.3823 189.25034 216.97609 189.12484 C 219.0567 189.05218 222.6203 188.44398 224.34244 188.95197 C 227.02352 189.80523 227.33576 187.90055 226.67104 174.28862 C 226.17806 165.59448 225.28697 156.34612 224.44451 153.91364 C 223.59546 151.29201 222.19217 149.06849 221.04408 148.72983 C 219.896 148.39117 217.855 149.5987 216.40129 151.35386 Z" fill="black"/>
          </g>
          <g id="Graphic_46">
            <path d="M 222.6065 171.77927 C 222.51883 180.11493 224.9037 185.33355 220.69863 185.67043 C 215.62053 185.12867 217.7199 183.6913 217.48873 177.07117 C 217.3104 171.96422 217.63344 164.94598 218.0886 161.71068 C 218.71308 157.90133 219.7885 156.15938 220.96302 157.25463 C 221.94178 158.16733 222.7404 164.76764 222.6065 171.77927 Z" fill="white"/>
          </g>
        </g>
      </g>
    </g>
  </g>
</svg>
